<?xml version="1.0" standalone="no"?>
<!DOCTYPE svg PUBLIC "-//W3C//DTD SVG 20010904//EN"
 "http://www.w3.org/TR/2001/REC-SVG-20010904/DTD/svg10.dtd">
<svg version="1.0" xmlns="http://www.w3.org/2000/svg"
 width="235.000000pt" height="235.000000pt" viewBox="0 0 235.000000 235.000000"
 preserveAspectRatio="xMidYMid meet">
<metadata>
Created by potrace 1.11, written by Peter Selinger 2001-2013
</metadata>
<g transform="translate(0.000000,235.000000) scale(0.100000,-0.100000)"
fill="#000000" stroke="none">
<path d="M1558 2333 c7 -3 16 -2 19 1 4 3 -2 6 -13 5 -11 0 -14 -3 -6 -6z"/>
<path d="M30 2299 c0 -18 4 -20 30 -14 21 5 30 3 30 -6 0 -8 7 -6 20 6 23 21
19 35 -5 15 -12 -10 -15 -10 -15 4 0 14 -4 15 -20 6 -14 -7 -20 -7 -20 0 0 5
-4 10 -10 10 -5 0 -10 -9 -10 -21z"/>
<path d="M140 2301 c-6 -12 -7 -21 -1 -21 10 0 24 30 17 37 -2 3 -9 -5 -16
-16z"/>
<path d="M245 2311 c-3 -6 -12 -8 -20 -4 -8 3 -15 0 -15 -5 0 -14 50 -22 125
-19 46 1 60 6 60 17 0 12 -16 16 -72 18 -39 1 -74 -2 -78 -7z"/>
<path d="M425 2312 c-6 -4 -11 -14 -13 -22 -3 -12 0 -12 14 2 18 18 17 33 -1
20z"/>
<path d="M473 2298 c-1 -10 5 -18 13 -18 8 0 14 6 14 13 0 9 2 9 8 0 4 -7 33
-11 71 -12 35 0 65 -2 68 -5 3 -2 -5 -14 -18 -27 -14 -14 -20 -17 -16 -7 5 13
-3 16 -42 16 -40 1 -51 -3 -60 -21 l-12 -22 5 23 c4 21 1 22 -52 22 -32 0 -66
0 -77 1 -158 1 -194 -3 -200 -21 -3 -10 -12 -24 -21 -31 -12 -10 -13 -9 -8 5
4 11 1 16 -10 16 -9 0 -16 -8 -17 -17 0 -12 -2 -13 -6 -5 -3 7 1 19 7 28 7 8
10 18 6 22 -4 4 -14 -1 -21 -11 -13 -18 -13 -18 -18 0 -2 10 -4 2 -5 -17 -1
-19 -2 -42 -3 -50 0 -8 0 -60 1 -115 1 -55 1 -104 0 -110 -7 -31 1 -155 10
-155 6 0 10 8 11 18 0 9 3 12 5 5 3 -7 0 -22 -7 -35 -7 -13 -14 -39 -15 -58
-7 -108 -7 -180 -2 -186 4 -3 4 -12 2 -19 -3 -7 3 -15 13 -18 16 -4 16 -5 1
-6 -12 -1 -18 -10 -19 -26 -1 -44 -1 -95 1 -102 1 -5 2 -12 1 -16 -4 -25 -2
-399 2 -404 3 -3 3 -11 1 -18 -3 -7 3 -15 13 -18 16 -4 16 -5 1 -6 -20 -1 -20
-5 -18 -140 1 -45 5 -93 10 -105 4 -12 4 -29 0 -37 -10 -17 -16 -376 -7 -385
3 -3 3 -12 1 -19 -3 -7 3 -15 13 -18 15 -4 15 -5 1 -6 -18 -1 -25 -34 -19 -89
3 -32 4 -32 53 -31 27 1 51 6 55 12 3 5 9 3 14 -4 8 -12 10 -12 18 0 7 11 9
11 13 0 4 -12 7 -12 21 0 15 11 17 11 17 -2 0 -19 36 -12 64 12 18 15 18 15 8
-4 -9 -18 -7 -20 14 -20 13 1 33 10 44 20 11 10 20 13 20 7 0 -6 -6 -13 -12
-16 -7 -4 -3 -4 10 -2 12 2 22 -1 22 -6 0 -6 6 -6 15 2 8 6 19 9 25 5 6 -4 18
-1 27 7 12 9 15 9 9 1 -5 -9 -1 -13 11 -14 47 -3 92 -1 107 4 9 4 16 3 16 -2
0 -15 104 1 118 18 11 14 11 14 6 -1 -5 -15 1 -17 50 -17 45 1 56 4 56 18 1
18 30 61 30 44 0 -7 -4 -15 -10 -18 -5 -3 -10 -15 -10 -26 0 -15 7 -19 38 -17
20 0 47 -2 60 -6 17 -6 22 -3 22 11 0 11 3 14 8 7 8 -13 65 -16 57 -4 -2 4 5
16 18 26 12 10 16 12 10 4 -17 -19 -16 -37 3 -44 10 -4 13 -2 8 6 -4 7 -3 8 4
4 6 -4 34 -8 62 -10 45 -3 53 -1 67 20 9 14 18 22 21 20 3 -3 0 -12 -7 -20 -9
-11 -7 -15 11 -20 14 -3 27 0 34 8 8 12 12 12 21 -2 9 -15 12 -12 27 17 10 18
20 30 23 27 3 -3 0 -12 -7 -21 -17 -21 -5 -31 17 -14 11 9 14 10 9 2 -4 -8 -2
-13 8 -13 8 0 17 6 19 13 4 10 6 10 6 0 1 -15 51 -18 51 -3 0 6 -4 10 -9 10
-5 0 -7 9 -4 20 3 11 10 20 15 20 5 0 6 -9 3 -20 -4 -11 -2 -20 4 -20 6 0 11
-6 11 -12 0 -22 79 -16 92 6 7 13 7 20 -1 26 -8 5 -6 14 8 31 11 13 20 19 21
12 0 -6 -4 -15 -10 -18 -5 -3 -10 -12 -10 -18 0 -7 12 1 25 16 14 15 25 24 25
18 0 -5 -6 -16 -12 -23 -22 -23 -39 -58 -29 -58 6 0 17 10 26 23 l17 22 -7
-23 c-5 -16 -2 -22 9 -23 33 -1 136 0 144 1 4 1 29 2 55 1 33 0 47 4 44 12 -3
7 -10 11 -16 9 -7 -1 -5 8 5 23 9 14 19 23 22 21 3 -3 -1 -12 -8 -21 -15 -18
0 -20 19 -2 11 10 11 8 2 -10 -14 -28 -14 -40 1 -25 15 15 32 16 23 2 -12 -19
7 -10 25 12 l19 23 -5 -25 c-5 -24 -5 -24 10 -6 16 20 16 20 16 0 1 -17 3 -17
22 6 18 22 20 23 14 4 -5 -18 -2 -21 24 -21 16 0 30 5 30 11 0 6 4 5 9 -3 13
-20 131 -21 132 -1 0 10 2 11 6 3 12 -30 19 -8 20 62 0 41 -4 72 -8 69 -5 -3
-4 7 3 21 7 16 8 29 2 33 -13 10 -16 32 -4 32 5 0 10 7 10 16 0 8 -4 12 -10 9
-5 -3 -10 -2 -10 4 0 5 4 13 10 16 15 9 12 52 -4 58 -22 9 -37 -16 -31 -54 4
-27 3 -29 -3 -9 -8 24 -8 24 -20 5 -6 -11 -12 -15 -12 -9 0 6 11 27 24 47 13
19 27 45 31 58 7 22 7 23 -10 9 -16 -13 -18 -13 -13 0 3 8 15 15 27 14 18 -1
21 4 19 31 -1 17 1 36 5 42 4 6 3 14 -3 18 -5 3 -10 1 -10 -6 0 -7 -3 -10 -6
-7 -3 4 1 17 10 30 9 13 12 29 7 36 -4 7 -6 25 -3 39 4 20 2 24 -9 18 -11 -6
-12 -5 -1 6 8 8 12 47 12 112 0 76 -3 96 -12 91 -10 -6 -10 -4 0 8 9 12 12 66
10 216 -2 193 -3 199 -20 179 -11 -12 -16 -28 -12 -40 5 -17 4 -18 -9 -6 -16
15 -14 20 26 65 15 18 18 34 15 98 -3 43 -1 79 4 82 5 3 6 10 2 15 -3 5 -10 6
-16 3 -7 -4 -7 0 0 12 12 25 14 123 1 103 -5 -9 -9 -10 -9 -2 0 6 5 15 10 18
7 4 10 81 8 217 -2 203 -3 209 -20 187 -12 -13 -16 -29 -12 -42 5 -17 4 -18
-9 -6 -13 12 -12 19 14 53 29 40 38 76 19 76 -5 0 -10 -5 -10 -12 0 -6 -3 -8
-7 -4 -5 4 0 13 9 20 15 11 22 58 19 117 -2 36 -69 27 -85 -11 -3 -8 -4 -5 -2
8 5 26 0 28 -22 5 -12 -12 -13 -18 -4 -21 6 -2 12 -11 12 -20 0 -13 -4 -11
-16 6 -9 13 -14 28 -11 35 6 16 -132 19 -152 4 -12 -9 -13 -9 -7 0 5 9 0 13
-16 12 -13 -1 -58 0 -101 1 -66 2 -80 -1 -93 -16 -11 -15 -13 -15 -8 -3 8 25
-43 21 -62 -5 l-16 -21 7 23 c8 26 -9 30 -25 5 -11 -17 -11 -17 -6 0 6 19 -9
24 -20 6 -5 -8 -9 -8 -14 1 -5 8 -37 11 -96 10 -49 -1 -97 -2 -107 -1 -11 0
-27 -15 -39 -35 -11 -19 -23 -33 -25 -30 -3 2 3 16 13 30 9 15 14 30 10 34 -4
3 -11 0 -16 -8 -7 -10 -10 -11 -10 -2 0 22 -56 14 -69 -10 -11 -22 -11 -22 -6
-1 5 20 2 22 -62 25 -113 5 -144 -2 -162 -39 -9 -18 -22 -35 -28 -37 -8 -3 -5
9 7 31 23 43 18 56 -9 24 -18 -21 -19 -21 -24 -2 -4 17 -14 20 -83 21 -44 0
-86 1 -94 1 -8 0 -48 0 -88 -1 -73 -1 -97 4 -75 18 6 4 13 14 15 22 2 13 -14
15 -103 15 -93 0 -105 -2 -106 -17z m-33 -67 c-16 -31 -32 -36 -18 -7 6 14 15
26 20 26 5 0 4 -9 -2 -19z m1610 4 c0 -8 -4 -15 -10 -15 -5 0 -7 7 -4 15 4 8
8 15 10 15 2 0 4 -7 4 -15z m-1130 -16 c-7 -11 -14 -18 -17 -15 -3 3 0 12 7
21 18 21 23 19 10 -6z m524 -9 c-10 -16 -20 -28 -22 -26 -4 5 28 56 35 56 2 0
-4 -13 -13 -30z m-1254 11 c0 -5 -9 -19 -20 -32 l-21 -24 16 33 c15 31 25 41
25 23z m1059 -31 c0 -10 -3 -8 -9 5 -12 27 -12 43 0 25 5 -8 9 -22 9 -30z m61
15 c-7 -9 -15 -13 -18 -10 -3 2 1 11 8 20 7 9 15 13 18 10 3 -2 -1 -11 -8 -20z
m226 -17 c-19 -27 -21 -19 -4 18 7 14 14 21 16 15 2 -6 -4 -21 -12 -33z m425
15 c-12 -20 -14 -14 -5 12 4 9 9 14 11 11 3 -2 0 -13 -6 -23z m109 6 c-7 -11
-14 -18 -17 -15 -3 3 0 12 7 21 18 21 23 19 10 -6z m31 -2 c-10 -9 -11 -8 -5
6 3 10 9 15 12 12 3 -3 0 -11 -7 -18z m-1823 -25 c-13 -33 -28 -43 -28 -17 0
13 31 54 37 50 2 -1 -3 -16 -9 -33z m104 16 c-7 -7 -12 -8 -12 -2 0 14 12 26
19 19 2 -3 -1 -11 -7 -17z m157 -37 c-18 -28 -34 -49 -36 -47 -2 2 11 27 28
55 18 28 34 49 36 47 2 -2 -11 -27 -28 -55z m1671 49 c0 -5 -5 -10 -11 -10 -5
0 -7 5 -4 10 3 6 8 10 11 10 2 0 4 -4 4 -10z m-1756 -15 c-4 -8 -10 -15 -15
-15 -4 0 -6 7 -3 15 4 8 10 15 15 15 4 0 6 -7 3 -15z m60 -14 c-10 -14 -24
-36 -32 -49 -8 -12 -17 -20 -19 -18 -3 3 4 17 16 32 22 27 29 60 11 49 -5 -3
-10 -2 -10 3 0 5 11 10 25 10 25 0 25 -1 9 -27z m606 20 c0 -6 -4 -13 -10 -16
-5 -3 -10 1 -10 9 0 9 5 16 10 16 6 0 10 -4 10 -9z m560 -5 c0 -8 -4 -17 -9
-21 -6 -3 -9 4 -8 15 1 23 17 28 17 6z m40 -1 c0 -8 -4 -15 -10 -15 -5 0 -7 7
-4 15 4 8 8 15 10 15 2 0 4 -7 4 -15z m90 -21 c0 -3 -7 -1 -15 6 -8 7 -15 17
-15 22 0 5 7 3 15 -6 8 -8 15 -18 15 -22z m-587 6 c-3 -12 0 -20 6 -20 7 0 9
-5 6 -10 -4 -6 -12 -4 -22 5 -12 12 -13 19 -3 30 17 20 19 19 13 -5z m-1032
-23 c-8 -8 -11 -7 -11 4 0 20 13 34 18 19 3 -7 -1 -17 -7 -23z m1302 18 c-3
-9 -8 -14 -10 -11 -3 3 -2 9 2 15 9 16 15 13 8 -4z m-1111 -42 c-12 -26 -14
-37 -5 -40 14 -5 6 -33 -9 -33 -6 0 -8 7 -4 15 7 20 -4 19 -20 -2 -13 -17 -14
-17 -7 2 8 24 51 95 58 95 3 0 -3 -16 -13 -37z m489 10 c-12 -20 -14 -14 -5
12 4 9 9 14 11 11 3 -2 0 -13 -6 -23z m259 17 c0 -5 -5 -10 -11 -10 -5 0 -7 5
-4 10 3 6 8 10 11 10 2 0 4 -4 4 -10z m33 -5 c-3 -9 -8 -14 -10 -11 -3 3 -2 9
2 15 9 16 15 13 8 -4z m217 -6 c-7 -11 -14 -18 -17 -15 -3 3 0 12 7 21 18 21
23 19 10 -6z m156 -16 c-8 -15 -15 -25 -16 -21 0 12 23 58 27 54 3 -2 -2 -17
-11 -33z m398 9 c-6 -4 -16 -16 -22 -27 -10 -18 -11 -18 -12 -2 0 27 23 58 35
46 7 -7 6 -12 -1 -17z m136 7 c-7 -11 -14 -19 -16 -16 -7 7 7 37 17 37 6 0 5
-9 -1 -21z m-990 -10 c-7 -11 -14 -19 -16 -16 -7 7 7 37 17 37 6 0 5 -9 -1
-21z m780 6 c0 -8 -4 -15 -10 -15 -5 0 -7 7 -4 15 4 8 8 15 10 15 2 0 4 -7 4
-15z m110 11 c0 -3 -4 -8 -10 -11 -5 -3 -10 -1 -10 4 0 6 5 11 10 11 6 0 10
-2 10 -4z m22 -18 c-7 -7 -12 -8 -12 -2 0 6 3 14 7 17 3 4 9 5 12 2 2 -3 -1
-11 -7 -17z m99 -1 c-10 -9 -11 -8 -5 6 3 10 9 15 12 12 3 -3 0 -11 -7 -18z
m154 13 c3 -5 1 -10 -4 -10 -6 0 -11 5 -11 10 0 6 2 10 4 10 3 0 8 -4 11 -10z
m-1310 -19 c-3 -6 -11 -11 -16 -11 -5 0 -4 6 3 14 14 16 24 13 13 -3z m26 -4
c-10 -9 -11 -8 -5 6 3 10 9 15 12 12 3 -3 0 -11 -7 -18z m84 13 c-4 -6 -2 -16
4 -23 6 -8 6 -18 1 -27 -8 -12 -10 -9 -10 10 -1 24 -1 24 -15 6 -15 -19 -15
-19 -15 3 0 12 4 20 9 17 5 -3 11 1 15 9 3 8 8 15 11 15 4 0 3 -5 0 -10z m351
-22 c-18 -26 -22 -17 -5 14 6 11 13 17 16 15 3 -3 -2 -16 -11 -29z m214 17 c0
-8 -4 -15 -10 -15 -5 0 -10 7 -10 15 0 8 5 15 10 15 6 0 10 -7 10 -15z m600
11 c0 -3 -4 -8 -10 -11 -5 -3 -10 -1 -10 4 0 6 5 11 10 11 6 0 10 -2 10 -4z
m-1660 -27 c-7 -11 -14 -18 -17 -15 -3 3 0 12 7 21 18 21 23 19 10 -6z m219
-30 c-13 -23 -24 -38 -27 -31 -3 10 40 84 46 77 2 -1 -7 -22 -19 -46z m322 18
c-13 -12 -20 -15 -16 -7 14 26 28 41 33 35 3 -3 -5 -16 -17 -28z m199 13 c-6
-11 -13 -20 -16 -20 -2 0 0 9 6 20 6 11 13 20 16 20 2 0 0 -9 -6 -20z m-655
-26 c-8 -16 -15 -23 -15 -16 0 17 20 55 26 49 2 -2 -2 -17 -11 -33z m595 26
c0 -5 -2 -10 -4 -10 -3 0 -8 5 -11 10 -3 6 -1 10 4 10 6 0 11 -4 11 -10z
m1000 0 c0 -5 -5 -10 -11 -10 -5 0 -7 5 -4 10 3 6 8 10 11 10 2 0 4 -4 4 -10z
m-2118 -32 c-8 -8 -9 -4 -5 13 4 13 8 18 11 10 2 -7 -1 -18 -6 -23z m558 17
c0 -8 -4 -15 -10 -15 -5 0 -7 7 -4 15 4 8 8 15 10 15 2 0 4 -7 4 -15z m439
-29 c-29 -49 -36 -46 -8 4 12 22 24 38 26 36 2 -2 -6 -20 -18 -40z m731 40 c0
-2 -7 -9 -15 -16 -13 -11 -14 -10 -9 4 5 14 24 23 24 12z m280 0 c0 -3 -4 -8
-10 -11 -5 -3 -10 -1 -10 4 0 6 5 11 10 11 6 0 10 -2 10 -4z m-1872 -37 c-15
-26 -38 -53 -38 -45 0 10 44 75 48 71 2 -2 -3 -13 -10 -26z m168 -1 c-18 -26
-22 -17 -5 14 6 11 13 17 16 15 3 -3 -2 -16 -11 -29z m181 10 c-3 -8 -6 -5 -6
6 -1 11 2 17 5 13 3 -3 4 -12 1 -19z m205 0 c-7 -7 -12 -8 -12 -2 0 14 12 26
19 19 2 -3 -1 -11 -7 -17z m104 -3 c-9 -9 -16 -13 -16 -8 0 12 22 34 28 28 2
-2 -3 -11 -12 -20z m636 3 c-7 -7 -12 -8 -12 -2 0 6 3 14 7 17 3 4 9 5 12 2 2
-3 -1 -11 -7 -17z m118 12 c0 -5 -4 -10 -9 -10 -6 0 -13 5 -16 10 -3 6 1 10 9
10 9 0 16 -4 16 -10z m200 -5 c0 -8 -4 -15 -10 -15 -5 0 -7 7 -4 15 4 8 8 15
10 15 2 0 4 -7 4 -15z m313 0 c-3 -9 -8 -14 -10 -11 -3 3 -2 9 2 15 9 16 15
13 8 -4z m-1894 -29 c-7 -14 -16 -26 -21 -26 -5 0 -1 14 7 31 20 37 31 33 14
-5z m1341 24 c0 -5 -4 -10 -10 -10 -5 0 -10 5 -10 10 0 6 5 10 10 10 6 0 10
-4 10 -10z m396 -12 c1 -11 -3 -15 -12 -11 -17 6 -19 36 -2 31 6 -2 12 -11 14
-20z m180 -6 c-18 -16 -18 -16 -6 6 6 13 14 21 18 18 3 -4 -2 -14 -12 -24z
m-1644 -4 c-7 -7 -12 -8 -12 -2 0 14 12 26 19 19 2 -3 -1 -11 -7 -17z m1368 2
c0 -11 -4 -20 -9 -20 -5 0 -7 9 -4 20 3 11 7 20 9 20 2 0 4 -9 4 -20z m180 10
c0 -5 -5 -10 -11 -10 -5 0 -7 5 -4 10 3 6 8 10 11 10 2 0 4 -4 4 -10z m-1976
-30 c-10 -16 -20 -28 -22 -26 -4 5 28 56 35 56 2 0 -4 -13 -13 -30z m453 8
c-3 -8 -6 -5 -6 6 -1 11 2 17 5 13 3 -3 4 -12 1 -19z m665 0 c-7 -7 -12 -8
-12 -2 0 14 12 26 19 19 2 -3 -1 -11 -7 -17z m71 7 c-3 -9 -8 -14 -10 -11 -3
3 -2 9 2 15 9 16 15 13 8 -4z m914 -7 c-3 -8 -6 -5 -6 6 -1 11 2 17 5 13 3 -3
4 -12 1 -19z m-1717 2 c0 -5 -2 -10 -4 -10 -3 0 -8 5 -11 10 -3 6 -1 10 4 10
6 0 11 -4 11 -10z m266 -16 c-4 -9 -9 -15 -11 -12 -3 3 -3 13 1 22 4 9 9 15
11 12 3 -3 3 -13 -1 -22z m284 11 c0 -8 -4 -15 -10 -15 -5 0 -7 7 -4 15 4 8 8
15 10 15 2 0 4 -7 4 -15z m376 -17 c-9 -12 -16 -19 -16 -15 0 11 24 47 28 42
2 -2 -3 -14 -12 -27z m74 12 c-6 -11 -13 -20 -16 -20 -2 0 0 9 6 20 6 11 13
20 16 20 2 0 0 -9 -6 -20z m463 5 c-3 -9 -8 -14 -10 -11 -3 3 -2 9 2 15 9 16
15 13 8 -4z m-1800 -38 c-3 -5 -9 -3 -14 4 -8 12 -11 11 -19 -1 -14 -22 -12
-3 2 19 11 18 13 18 24 3 7 -9 10 -21 7 -25z m431 25 c-6 -4 -14 -17 -18 -29
-4 -13 -11 -23 -16 -23 -13 0 2 44 19 57 9 6 18 9 21 7 2 -3 0 -8 -6 -12z
m274 -8 c-7 -15 -14 -21 -16 -15 -2 7 2 18 8 26 18 22 21 18 8 -11z m368 -26
c-14 -24 -26 -39 -26 -35 0 12 44 86 48 82 2 -2 -8 -23 -22 -47z m160 25 c-10
-10 -19 5 -10 18 6 11 8 11 12 0 2 -7 1 -15 -2 -18z m468 -14 c-9 -15 -24 10
-17 29 5 12 7 12 15 -2 5 -9 6 -21 2 -27z m194 21 c-7 -10 -14 -17 -17 -15 -4
4 18 35 25 35 2 0 -1 -9 -8 -20z m52 16 c0 -2 -7 -7 -16 -10 -8 -3 -12 -2 -9
4 6 10 25 14 25 6z m-336 -14 c-6 -4 -14 -17 -18 -29 -4 -13 -11 -23 -16 -23
-10 0 -3 28 13 48 5 6 15 12 21 12 8 0 8 -2 0 -8z m-1339 -31 c-3 -12 -11 -21
-16 -21 -6 0 -8 3 -6 8 2 4 7 16 11 26 9 25 20 13 11 -13z m247 7 c-7 -7 -12
-8 -12 -2 0 14 12 26 19 19 2 -3 -1 -11 -7 -17z m248 7 c0 -8 -4 -15 -10 -15
-5 0 -7 7 -4 15 4 8 8 15 10 15 2 0 4 -7 4 -15z m347 -4 c0 -11 -5 -18 -9 -15
-4 3 -5 11 -1 19 7 21 12 19 10 -4z m618 -10 c-8 -17 -21 -33 -27 -37 -8 -5
-7 1 3 16 8 14 19 31 23 38 15 25 16 11 1 -17z m-1573 -13 c-8 -8 -9 -4 -5 13
4 13 8 18 11 10 2 -7 -1 -18 -6 -23z m398 23 c0 -5 -9 -19 -21 -32 l-20 -24
17 33 c19 33 24 38 24 23z m55 -21 c-9 -16 -18 -30 -21 -30 -2 0 2 14 11 30 9
17 18 30 21 30 2 0 -2 -13 -11 -30z m836 3 c-8 -15 -10 -15 -11 -2 0 17 10 32
18 25 2 -3 -1 -13 -7 -23z m346 -3 c-7 -17 -13 -26 -15 -21 -3 10 15 51 22 51
3 0 -1 -14 -7 -30z m-1792 -35 c-15 -26 -29 -45 -31 -42 -3 3 7 25 23 50 15
25 29 44 31 42 3 -2 -8 -25 -23 -50z m92 33 c-3 -8 -6 -5 -6 6 -1 11 2 17 5
13 3 -3 4 -12 1 -19z m253 12 c0 -5 -5 -10 -11 -10 -5 0 -7 5 -4 10 3 6 8 10
11 10 2 0 4 -4 4 -10z m16 -18 c-18 -16 -18 -16 -6 6 6 13 14 21 18 18 3 -4
-2 -14 -12 -24z m294 18 c0 -5 -4 -10 -10 -10 -5 0 -10 5 -10 10 0 6 5 10 10
10 6 0 10 -4 10 -10z m652 -12 c-7 -7 -12 -8 -12 -2 0 6 3 14 7 17 3 4 9 5 12
2 2 -3 -1 -11 -7 -17z m218 12 c0 -5 -5 -10 -11 -10 -5 0 -7 5 -4 10 3 6 8 10
11 10 2 0 4 -4 4 -10z m16 -18 c-17 -16 -18 -16 -5 5 7 12 15 20 18 17 3 -2
-3 -12 -13 -22z m-1346 8 c0 -5 -5 -10 -11 -10 -5 0 -7 5 -4 10 3 6 8 10 11
10 2 0 4 -4 4 -10z m763 -5 c-3 -9 -8 -14 -10 -11 -3 3 -2 9 2 15 9 16 15 13
8 -4z m417 5 c0 -5 -5 -10 -11 -10 -5 0 -7 5 -4 10 3 6 8 10 11 10 2 0 4 -4 4
-10z m-1169 -27 c-12 -20 -14 -14 -5 12 4 9 9 14 11 11 3 -2 0 -13 -6 -23z
m706 5 c-3 -8 -6 -5 -6 6 -1 11 2 17 5 13 3 -3 4 -12 1 -19z m75 0 c-7 -7 -12
-8 -12 -2 0 14 12 26 19 19 2 -3 -1 -11 -7 -17z m406 2 c-7 -10 -14 -18 -15
-16 -6 6 9 36 18 36 5 0 4 -9 -3 -20z m-1329 -6 c6 4 11 3 11 -2 0 -6 -7 -12
-15 -16 -8 -3 -15 -1 -15 5 0 6 -4 7 -10 4 -6 -3 -7 1 -3 10 4 12 8 13 13 5 4
-7 13 -9 19 -6z m501 -3 c-5 -11 -15 -23 -20 -26 -6 -3 -10 -13 -10 -21 0 -8
5 -12 10 -9 6 3 10 -1 10 -11 0 -12 -3 -14 -13 -5 -10 8 -17 7 -25 -1 -23 -23
-12 4 20 48 33 46 46 57 28 25z m231 -4 c-10 -9 -11 -8 -5 6 3 10 9 15 12 12
3 -3 0 -11 -7 -18z m49 13 c0 -5 -5 -10 -11 -10 -5 0 -7 5 -4 10 3 6 8 10 11
10 2 0 4 -4 4 -10z m380 2 c0 -5 -7 -17 -15 -28 -14 -18 -15 -18 -11 6 3 14 5
26 5 28 2 6 21 1 21 -6z m231 -25 c-8 -8 -11 -7 -11 4 0 9 3 19 7 23 4 4 9 2
11 -4 3 -7 -1 -17 -7 -23z m285 11 c-9 -13 -20 -33 -25 -45 -10 -21 -31 -40
-31 -28 0 9 62 95 68 95 2 0 -3 -10 -12 -22z m235 -1 c-10 -9 -11 -8 -5 6 3
10 9 15 12 12 3 -3 0 -11 -7 -18z m-1874 -9 c-3 -8 -6 -5 -6 6 -1 11 2 17 5
13 3 -3 4 -12 1 -19z m68 13 c3 -5 1 -12 -5 -16 -5 -3 -10 1 -10 9 0 18 6 21
15 7z m115 0 c0 -6 -4 -13 -10 -16 -5 -3 -10 1 -10 9 0 9 5 16 10 16 6 0 10
-4 10 -9z m436 -19 c-18 -16 -18 -16 -6 6 6 13 14 21 18 18 3 -4 -2 -14 -12
-24z m385 1 c-12 -20 -14 -14 -5 12 4 9 9 14 11 11 3 -2 0 -13 -6 -23z m312
12 c-3 -9 -8 -14 -10 -11 -3 3 -2 9 2 15 9 16 15 13 8 -4z m483 -13 c-18 -16
-18 -16 -6 6 6 13 14 21 18 18 3 -4 -2 -14 -12 -24z m48 13 c-4 -8 -8 -15 -10
-15 -2 0 -4 7 -4 15 0 8 4 15 10 15 5 0 7 -7 4 -15z m-817 -23 c-10 -10 -17
-25 -18 -33 0 -9 -2 -10 -6 -2 -4 12 28 65 36 57 2 -2 -3 -12 -12 -22z m174 5
c-10 -9 -11 -8 -5 6 3 10 9 15 12 12 3 -3 0 -11 -7 -18z m-910 -10 c-10 -9
-11 -8 -5 6 3 10 9 15 12 12 3 -3 0 -11 -7 -18z m210 0 c-10 -9 -11 -8 -5 6 3
10 9 15 12 12 3 -3 0 -11 -7 -18z m970 0 c-10 -9 -11 -8 -5 6 3 10 9 15 12 12
3 -3 0 -11 -7 -18z m185 -3 c-4 -9 -9 -15 -11 -12 -3 3 -3 13 1 22 4 9 9 15
11 12 3 -3 3 -13 -1 -22z m-1184 -6 c-7 -7 -12 -8 -12 -2 0 14 12 26 19 19 2
-3 -1 -11 -7 -17z m1377 -10 c-7 -13 -14 -18 -16 -11 -3 7 2 19 9 27 18 20 22
12 7 -16z m-1789 -8 c0 -3 -9 -6 -20 -7 -17 -1 -18 1 -8 17 9 14 14 16 20 7 4
-7 8 -14 8 -17z m46 4 c-4 -9 -9 -15 -11 -12 -3 3 -3 13 1 22 4 9 9 15 11 12
3 -3 3 -13 -1 -22z m714 6 c8 -15 8 -25 0 -38 -11 -16 -11 -16 -6 1 3 10 1 27
-4 38 -6 10 -8 19 -6 19 3 0 10 -9 16 -20z m456 -18 c-15 -15 -15 -15 -4 10 7
15 15 23 17 17 2 -6 -4 -18 -13 -27z m88 29 c3 -5 -1 -14 -8 -20 -12 -10 -13
-8 -9 8 6 23 9 25 17 12z m-1371 -31 c-10 -22 -12 -34 -4 -43 5 -7 6 -19 2
-26 -7 -10 -10 -9 -16 8 -7 22 1 58 17 79 17 20 17 14 1 -18z m677 21 c0 -5
-7 -14 -15 -21 -16 -14 -18 -10 -9 14 6 17 24 22 24 7z m16 -23 c-9 -12 -16
-19 -16 -15 0 11 24 47 28 42 2 -2 -3 -14 -12 -27z m77 17 c-3 -9 -8 -14 -10
-11 -3 3 -2 9 2 15 9 16 15 13 8 -4z m215 -11 c-7 -15 -14 -21 -16 -15 -5 16
5 41 17 41 7 0 6 -10 -1 -26z m122 -13 c-20 -40 -40 -61 -40 -42 0 6 4 11 9
11 10 0 21 27 20 44 -1 7 19 25 29 26 1 0 -7 -18 -18 -39z m115 27 c5 4 1 -5
-8 -20 -26 -41 -20 -57 9 -23 l26 30 -24 -42 -23 -42 -14 26 c-10 19 -11 28
-2 31 7 2 8 14 4 30 -5 23 -4 25 9 15 8 -7 19 -9 23 -5z m175 -3 c-7 -9 -10
-25 -6 -40 4 -17 1 -34 -10 -48 -16 -22 -16 -19 2 31 9 24 -7 6 -40 -43 -14
-22 -26 -34 -26 -28 0 7 5 15 10 18 6 3 10 14 10 24 0 10 9 26 20 36 11 10 20
23 20 30 0 6 5 16 12 23 17 17 23 15 8 -3z m473 -24 c-10 -17 -21 -31 -26 -31
-4 0 3 15 15 34 28 42 35 40 11 -3z m-1664 2 c-6 -15 -13 -30 -17 -33 -4 -3
-13 -16 -19 -30 -11 -24 -12 -24 -12 -3 -1 12 5 28 12 35 8 7 19 23 26 36 16
31 23 28 10 -5z m282 0 c-8 -15 -10 -15 -11 -2 0 17 10 32 18 25 2 -3 -1 -13
-7 -23z m459 17 c0 -5 -5 -10 -11 -10 -5 0 -7 5 -4 10 3 6 8 10 11 10 2 0 4
-4 4 -10z m687 -12 c-3 -8 -6 -5 -6 6 -1 11 2 17 5 13 3 -3 4 -12 1 -19z m41
2 c-7 -10 -14 -18 -15 -16 -6 6 9 36 18 36 5 0 4 -9 -3 -20z m269 -2 c-3 -8
-6 -5 -6 6 -1 11 2 17 5 13 3 -3 4 -12 1 -19z m-1641 -14 c-4 -9 -9 -15 -11
-12 -3 3 -3 13 1 22 4 9 9 15 11 12 3 -3 3 -13 -1 -22z m217 9 c-8 -21 -33
-48 -33 -36 0 10 29 53 35 53 3 0 1 -8 -2 -17z m40 2 c-3 -9 -8 -14 -10 -11
-3 3 -2 9 2 15 9 16 15 13 8 -4z m54 -7 c-3 -8 -6 -5 -6 6 -1 11 2 17 5 13 3
-3 4 -12 1 -19z m433 17 c0 -2 -12 -21 -26 -42 -27 -38 -27 -32 -2 19 11 24
28 38 28 23z m431 -28 c-8 -8 -11 -8 -11 1 0 15 -30 4 -30 -12 0 -6 -8 -20
-16 -31 -16 -19 -16 -19 -9 5 10 34 36 62 52 56 7 -3 13 0 14 7 0 8 2 8 6 -1
3 -8 0 -19 -6 -25z m222 16 c-8 -21 -33 -48 -33 -36 0 10 29 53 35 53 3 0 1
-8 -2 -17z m40 2 c-3 -9 -8 -14 -10 -11 -3 3 -2 9 2 15 9 16 15 13 8 -4z
m-1860 -10 c-3 -9 -8 -14 -10 -11 -3 3 -2 9 2 15 9 16 15 13 8 -4z m68 -22
c-10 -17 -10 -16 -11 3 0 23 13 41 18 25 2 -6 -1 -18 -7 -28z m176 15 c-3 -8
-6 -5 -6 6 -1 11 2 17 5 13 3 -3 4 -12 1 -19z m130 -18 c-22 -40 -42 -55 -30
-22 5 15 42 62 49 62 1 0 -7 -18 -19 -40z m81 18 c-22 -38 -48 -71 -48 -60 0
6 7 17 15 26 8 8 15 18 15 23 0 8 20 33 27 33 2 0 -2 -10 -9 -22z m1180 0
c-21 -38 -48 -71 -48 -61 0 6 7 16 15 23 8 7 15 18 15 24 0 11 19 36 27 36 2
0 -2 -10 -9 -22z m-1461 -10 c-3 -8 -6 -5 -6 6 -1 11 2 17 5 13 3 -3 4 -12 1
-19z m873 14 c0 -5 -7 -17 -15 -28 -14 -18 -14 -17 -4 9 12 27 19 34 19 19z
m827 -20 c-10 -10 -17 -24 -17 -30 0 -7 -5 -12 -10 -12 -7 0 -7 8 1 22 15 27
33 47 38 42 2 -2 -3 -12 -12 -22z m-1901 3 c17 -16 14 -18 -10 -9 -9 3 -16 10
-16 15 0 13 9 11 26 -6z m511 -7 c-3 -8 -6 -5 -6 6 -1 11 2 17 5 13 3 -3 4
-12 1 -19z m584 -1 c-10 -9 -11 -8 -5 6 3 10 9 15 12 12 3 -3 0 -11 -7 -18z
m109 10 c0 -8 -12 -27 -26 -43 l-26 -29 23 43 c24 45 29 50 29 29z m205 -8
c-10 -15 -25 -10 -19 6 4 8 10 12 15 9 5 -3 7 -10 4 -15z m282 -1 c-3 -8 -6
-5 -6 6 -1 11 2 17 5 13 3 -3 4 -12 1 -19z m-1327 0 c0 -7 -12 -26 -26 -43
l-25 -30 23 42 c25 46 28 50 28 31z m312 -10 c-7 -7 -12 -8 -12 -2 0 14 12 26
19 19 2 -3 -1 -11 -7 -17z m28 -8 c-6 -12 -14 -20 -17 -17 -2 3 1 14 8 26 17
26 24 19 9 -9z m560 10 c-6 -11 -13 -20 -16 -20 -2 0 0 9 6 20 6 11 13 20 16
20 2 0 0 -9 -6 -20z m50 16 c0 -2 -7 -7 -16 -10 -8 -3 -12 -2 -9 4 6 10 25 14
25 6z m542 -18 c-7 -7 -12 -8 -12 -2 0 6 3 14 7 17 3 4 9 5 12 2 2 -3 -1 -11
-7 -17z m-1802 8 c0 -3 -4 -8 -10 -11 -5 -3 -10 -1 -10 4 0 6 5 11 10 11 6 0
10 -2 10 -4z m200 -15 c0 -10 -7 -21 -15 -24 -12 -5 -12 -2 -3 18 13 30 18 31
18 6z m480 -11 c-6 -12 -14 -20 -17 -17 -2 3 1 14 8 26 17 26 24 19 9 -9z m91
-18 c-11 -23 -26 -44 -32 -48 -7 -4 1 16 17 44 33 60 45 62 15 4z m159 33 c0
-8 -4 -15 -10 -15 -5 0 -7 7 -4 15 4 8 8 15 10 15 2 0 4 -7 4 -15z m468 -10
c6 12 12 14 12 7 0 -8 -9 -26 -20 -42 -11 -15 -17 -30 -14 -32 3 -3 -2 -8 -11
-11 -19 -8 -19 -3 1 35 14 26 14 30 1 25 -12 -4 -12 -1 -3 19 l11 23 6 -22 c5
-22 5 -22 17 -2z m461 -7 c-7 -13 -14 -18 -16 -11 -3 7 2 19 9 27 18 20 22 12
7 -16z m102 5 c-12 -20 -14 -14 -5 12 4 9 9 14 11 11 3 -2 0 -13 -6 -23z
m-1904 -5 c-3 -8 -6 -5 -6 6 -1 11 2 17 5 13 3 -3 4 -12 1 -19z m113 18 c0 -3
-4 -8 -10 -11 -5 -3 -10 -1 -10 4 0 6 5 11 10 11 6 0 10 -2 10 -4z m34 -55
c-29 -45 -36 -50 -32 -24 3 19 49 76 55 69 3 -2 -8 -23 -23 -45z m276 45 c0
-2 -8 -10 -17 -17 -16 -13 -17 -12 -4 4 13 16 21 21 21 13z m1070 0 c0 -3 -4
-8 -10 -11 -5 -3 -10 -1 -10 4 0 6 5 11 10 11 6 0 10 -2 10 -4z m110 0 c0 -2
-8 -10 -17 -17 -16 -13 -17 -12 -4 4 13 16 21 21 21 13z m-1547 -21 c-3 -9 -8
-14 -10 -11 -3 3 -2 9 2 15 9 16 15 13 8 -4z m877 11 c0 -3 -4 -8 -10 -11 -5
-3 -10 -1 -10 4 0 6 5 11 10 11 6 0 10 -2 10 -4z m340 -6 c0 -5 -5 -10 -11
-10 -5 0 -7 5 -4 10 3 6 8 10 11 10 2 0 4 -4 4 -10z m-639 -23 c-10 -9 -11 -8
-5 6 3 10 9 15 12 12 3 -3 0 -11 -7 -18z m-384 -9 c-3 -8 -6 -5 -6 6 -1 11 2
17 5 13 3 -3 4 -12 1 -19z m552 -10 c-7 -13 -14 -18 -16 -11 -3 7 2 19 9 27
18 20 22 12 7 -16z m628 10 c-3 -8 -6 -5 -6 6 -1 11 2 17 5 13 3 -3 4 -12 1
-19z m444 -11 l-23 -22 17 28 c10 15 20 25 23 22 3 -3 -5 -16 -17 -28z m-1804
1 c-3 -8 -6 -5 -6 6 -1 11 2 17 5 13 3 -3 4 -12 1 -19z m24 -5 c-12 -20 -14
-14 -5 12 4 9 9 14 11 11 3 -2 0 -13 -6 -23z m224 17 c3 -5 1 -10 -4 -10 -6 0
-11 5 -11 10 0 6 2 10 4 10 3 0 8 -4 11 -10z m23 -15 c-6 -14 -13 -23 -15 -21
-5 5 15 46 22 46 3 0 -1 -11 -7 -25z m52 15 c0 -5 -4 -10 -9 -10 -5 0 -13 -9
-16 -20 -3 -11 -11 -20 -17 -20 -6 0 -6 6 2 15 7 8 9 15 6 15 -9 0 17 29 27
30 4 0 7 -4 7 -10z m92 -22 c-8 -8 -9 -4 -5 13 4 13 8 18 11 10 2 -7 -1 -18
-6 -23z m96 -8 c-12 -17 -23 -28 -25 -26 -7 6 31 64 39 60 4 -3 -2 -18 -14
-34z m502 36 c0 -3 -4 -8 -10 -11 -5 -3 -10 -1 -10 4 0 6 5 11 10 11 6 0 10
-2 10 -4z m20 -26 c-6 -12 -14 -20 -17 -17 -2 3 1 14 8 26 7 11 15 18 17 16 2
-2 -2 -13 -8 -25z m114 14 c3 -8 2 -12 -4 -9 -6 3 -10 10 -10 16 0 14 7 11 14
-7z m27 -17 c-8 -8 -11 -7 -11 4 0 9 3 19 7 23 4 4 9 2 11 -4 3 -7 -1 -17 -7
-23z m259 23 c0 -5 -4 -10 -10 -10 -5 0 -10 5 -10 10 0 6 5 10 10 10 6 0 10
-4 10 -10z m20 -20 c-6 -12 -14 -20 -17 -17 -2 3 1 14 8 26 7 11 15 18 17 16
2 -2 -2 -13 -8 -25z m142 -2 c-8 -8 -9 -4 -5 13 4 13 8 18 11 10 2 -7 -1 -18
-6 -23z m99 -4 c-11 -15 -21 -24 -21 -20 0 12 33 57 37 52 3 -3 -4 -17 -16
-32z m186 14 c-3 -8 -6 -5 -6 6 -1 11 2 17 5 13 3 -3 4 -12 1 -19z m37 -2 c-7
-19 -25 -22 -21 -3 2 12 19 28 24 23 2 -2 1 -11 -3 -20z m-1341 -25 c-10 -17
-22 -31 -27 -31 -4 0 -2 10 6 23 8 12 18 28 22 35 5 7 10 11 12 9 3 -2 -3 -18
-13 -36z m-770 -1 c-9 -11 -19 -18 -21 -16 -6 7 22 45 30 40 4 -3 0 -13 -9
-24z m740 10 c-3 -11 -9 -20 -15 -20 -5 0 -4 9 2 20 6 11 12 20 14 20 2 0 2
-9 -1 -20z m310 5 c-3 -9 -8 -14 -10 -11 -3 3 -2 9 2 15 9 16 15 13 8 -4z
m618 -12 c-12 -20 -14 -14 -5 12 4 9 9 14 11 11 3 -2 0 -13 -6 -23z m250 0
c-12 -20 -14 -14 -5 12 4 9 9 14 11 11 3 -2 0 -13 -6 -23z m28 -8 c-12 -19
-23 -35 -25 -35 -6 0 14 40 29 58 18 23 16 12 -4 -23z m-1519 18 c0 -5 -8 -17
-17 -28 -14 -18 -15 -18 -9 -2 3 10 6 23 6 28 0 5 5 9 10 9 6 0 10 -3 10 -7z
m64 -64 c-39 -59 -40 -58 -4 19 13 29 28 48 32 44 5 -5 -7 -33 -28 -63z m71
61 c3 -5 1 -10 -4 -10 -6 0 -11 5 -11 10 0 6 2 10 4 10 3 0 8 -4 11 -10z m266
-13 c-10 -9 -11 -8 -5 6 3 10 9 15 12 12 3 -3 0 -11 -7 -18z m42 8 c-3 -9 -8
-14 -10 -11 -3 3 -2 9 2 15 9 16 15 13 8 -4z m207 -15 c-6 -12 -14 -19 -17
-17 -2 3 1 15 7 27 6 12 14 19 17 17 2 -3 -1 -15 -7 -27z m38 10 c-7 -10 -14
-17 -17 -15 -4 4 18 35 25 35 2 0 -1 -9 -8 -20z m65 0 c-3 -12 -8 -19 -11 -16
-5 6 5 36 12 36 2 0 2 -9 -1 -20z m427 12 c0 -5 -6 -17 -14 -27 -13 -18 -14
-18 -9 8 5 24 23 39 23 19z m401 -15 c-10 -9 -11 -8 -5 6 3 10 9 15 12 12 3
-3 0 -11 -7 -18z m42 8 c-3 -9 -8 -14 -10 -11 -3 3 -2 9 2 15 9 16 15 13 8 -4z
m-1709 -19 c-6 -16 -24 -23 -24 -8 0 10 22 33 27 28 2 -2 1 -11 -3 -20z m25
-14 c-8 -15 -17 -29 -20 -32 -4 -3 -18 -27 -33 -55 -14 -27 -25 -43 -24 -35 4
21 82 160 87 154 2 -2 -2 -16 -10 -32z m1012 11 c-8 -15 -10 -15 -11 -2 0 17
10 32 18 25 2 -3 -1 -13 -7 -23z m141 5 c-7 -7 -12 -8 -12 -2 0 6 3 14 7 17 3
4 9 5 12 2 2 -3 -1 -11 -7 -17z m38 1 c-7 -11 -14 -18 -17 -15 -3 3 0 12 7 21
18 21 23 19 10 -6z m150 12 c0 -6 -4 -13 -10 -16 -5 -3 -10 1 -10 9 0 9 5 16
10 16 6 0 10 -4 10 -9z m-920 -21 c-6 -11 -13 -20 -16 -20 -2 0 0 9 6 20 6 11
13 20 16 20 2 0 0 -9 -6 -20z m190 16 c0 -2 -8 -10 -17 -17 -16 -13 -17 -12
-4 4 13 16 21 21 21 13z m480 0 c0 -2 -8 -10 -17 -17 -16 -13 -17 -12 -4 4 13
16 21 21 21 13z m510 -16 c-6 -11 -13 -20 -16 -20 -2 0 0 9 6 20 6 11 13 20
16 20 2 0 0 -9 -6 -20z m-1300 -22 c0 -5 -7 -3 -15 6 -8 8 -15 18 -15 22 0 3
7 1 15 -6 8 -7 15 -17 15 -22z m230 23 c0 -6 -4 -13 -10 -16 -5 -3 -10 1 -10
9 0 9 5 16 10 16 6 0 10 -4 10 -9z m135 0 c-3 -6 2 -14 11 -19 11 -6 13 -11 5
-16 -6 -4 -11 -2 -11 4 0 6 -4 8 -10 5 -11 -7 -14 18 -3 28 10 10 15 8 8 -2z
m818 -23 c-2 -4 -10 -2 -17 5 -8 6 -12 15 -9 19 2 4 10 2 17 -5 8 -6 12 -15 9
-19z m219 10 c-7 -7 -12 -8 -12 -2 0 6 3 14 7 17 3 4 9 5 12 2 2 -3 -1 -11 -7
-17z m-1465 -10 c-3 -8 -6 -5 -6 6 -1 11 2 17 5 13 3 -3 4 -12 1 -19z m113 12
c0 -5 -5 -10 -11 -10 -5 0 -7 5 -4 10 3 6 8 10 11 10 2 0 4 -4 4 -10z m491
-36 c-25 -32 -28 -14 -4 23 9 14 19 21 21 14 2 -6 -6 -23 -17 -37z m-1105 8
c-18 -16 -18 -16 -6 6 6 13 14 21 18 18 3 -4 -2 -14 -12 -24z m984 8 c-6 -11
-12 -20 -14 -20 -2 0 -2 9 1 20 3 11 9 20 15 20 5 0 4 -9 -2 -20z m-1098 -22
c-8 -8 -9 -4 -5 13 4 13 8 18 11 10 2 -7 -1 -18 -6 -23z m58 28 c0 -3 -4 -8
-10 -11 -5 -3 -10 -1 -10 4 0 6 5 11 10 11 6 0 10 -2 10 -4z m1195 -26 c-9
-16 -18 -30 -21 -30 -2 0 2 14 11 30 9 17 18 30 21 30 2 0 -2 -13 -11 -30z
m428 15 c-3 -9 -8 -14 -10 -11 -3 3 -2 9 2 15 9 16 15 13 8 -4z m-1262 -18
c-10 -9 -11 -8 -5 6 3 10 9 15 12 12 3 -3 0 -11 -7 -18z m275 -4 c-18 -35 -45
-70 -46 -60 0 10 49 87 55 87 3 0 -1 -12 -9 -27z m154 23 c0 -3 -4 -8 -10 -11
-5 -3 -10 -1 -10 4 0 6 5 11 10 11 6 0 10 -2 10 -4z m337 -16 c-3 -11 -1 -23
4 -26 12 -7 11 -24 -1 -24 -5 0 -9 3 -9 8 3 20 -3 23 -18 11 -17 -13 -17 -13
0 7 9 11 17 26 17 32 0 7 3 12 6 12 4 0 4 -9 1 -20z m414 -3 c-10 -9 -11 -8
-5 6 3 10 9 15 12 12 3 -3 0 -11 -7 -18z m429 19 c0 -3 -4 -8 -10 -11 -5 -3
-10 -1 -10 4 0 6 5 11 10 11 6 0 10 -2 10 -4z m-1792 -26 c-7 -10 -14 -17 -17
-15 -4 4 18 35 25 35 2 0 -1 -9 -8 -20z m-65 -11 c-4 -13 -9 -17 -15 -11 -11
11 -3 32 12 32 4 0 6 -9 3 -21z m548 -12 c-8 -8 -11 -7 -11 4 0 20 13 34 18
19 3 -7 -1 -17 -7 -23z m639 29 c0 -3 -4 -8 -10 -11 -5 -3 -10 -1 -10 4 0 6 5
11 10 11 6 0 10 -2 10 -4z m541 -19 c-10 -9 -11 -8 -5 6 3 10 9 15 12 12 3 -3
0 -11 -7 -18z m-1614 1 c2 6 9 12 14 12 11 0 -23 -69 -34 -70 -4 0 -3 10 4 22
10 18 9 20 -5 15 -18 -7 -19 -6 -10 18 6 13 9 14 16 3 7 -10 11 -10 15 0z
m504 -5 c-25 -43 -31 -49 -31 -31 0 9 7 24 16 32 20 21 27 20 15 -1z m312 2
c-3 -9 -8 -14 -10 -11 -3 3 -2 9 2 15 9 16 15 13 8 -4z m373 2 c14 17 15 17 5
-2 -6 -11 -15 -27 -22 -35 -9 -13 -10 -12 -5 3 3 11 0 17 -9 17 -9 0 -12 6 -8
16 5 15 7 15 15 -1 9 -15 11 -15 24 2z m-1396 -27 c-6 -12 -14 -20 -17 -17 -2
3 1 14 8 26 17 26 24 19 9 -9z m266 -18 c-14 -21 -26 -43 -26 -49 0 -6 -7 -16
-15 -23 -13 -11 -14 -10 -8 6 9 24 44 85 58 100 22 26 16 2 -9 -34z m64 38 c0
-5 -5 -10 -11 -10 -5 0 -7 5 -4 10 3 6 8 10 11 10 2 0 4 -4 4 -10z m730 6 c0
-2 -7 -9 -15 -16 -13 -11 -14 -10 -9 4 5 14 24 23 24 12z m441 -19 c-10 -9
-11 -8 -5 6 3 10 9 15 12 12 3 -3 0 -11 -7 -18z m26 -17 c-12 -22 -23 -35 -25
-30 -3 9 35 70 43 70 2 0 -6 -18 -18 -40z m-1496 3 c-12 -20 -14 -14 -5 12 4
9 9 14 11 11 3 -2 0 -13 -6 -23z m639 17 c0 -5 -4 -10 -10 -10 -5 0 -10 -7
-10 -17 0 -9 -3 -14 -6 -10 -8 8 5 47 17 47 5 0 9 -4 9 -10z m88 -17 c-15 -35
-28 -51 -28 -35 0 13 29 62 36 62 2 0 -2 -12 -8 -27z m1184 5 c-7 -7 -12 -8
-12 -2 0 6 3 14 7 17 3 4 9 5 12 2 2 -3 -1 -11 -7 -17z m-1597 -22 c-3 -31
-44 -123 -45 -101 0 6 9 27 20 48 22 40 12 51 -14 15 -13 -20 -15 -20 -9 -3 4
11 15 29 25 39 10 11 18 23 18 28 0 4 2 8 4 8 2 0 3 -15 1 -34z m96 11 c-10
-9 -11 -8 -5 6 3 10 9 15 12 12 3 -3 0 -11 -7 -18z m462 8 c-3 -9 -8 -14 -10
-11 -3 3 -2 9 2 15 9 16 15 13 8 -4z m-943 -4 c0 -6 -4 -13 -10 -16 -5 -3 -10
1 -10 9 0 9 5 16 10 16 6 0 10 -4 10 -9z m338 -18 c-28 -32 -52 -87 -39 -91
17 -6 13 -20 -10 -45 l-21 -22 12 25 c9 17 10 25 2 28 -8 2 -8 11 1 30 17 41
59 103 65 97 3 -3 -2 -13 -10 -22z m765 12 c-3 -9 -8 -14 -10 -11 -3 3 -2 9 2
15 9 16 15 13 8 -4z m523 -13 c-17 -16 -18 -16 -5 5 7 12 15 20 18 17 3 -2 -3
-12 -13 -22z m-1495 -5 c-10 -9 -11 -8 -5 6 3 10 9 15 12 12 3 -3 0 -11 -7
-18z m74 13 c3 -5 1 -10 -4 -10 -6 0 -11 5 -11 10 0 6 2 10 4 10 3 0 8 -4 11
-10z m215 0 c0 -5 -4 -10 -10 -10 -5 0 -10 5 -10 10 0 6 5 10 10 10 6 0 10 -4
10 -10z m24 -2 c-25 -41 -54 -80 -54 -72 0 9 51 84 57 84 2 0 1 -6 -3 -12z
m216 2 c0 -5 -4 -10 -10 -10 -5 0 -10 5 -10 10 0 6 5 10 10 10 6 0 10 -4 10
-10z m150 -29 c-12 -17 -23 -31 -25 -31 -7 0 8 34 24 52 24 28 25 12 1 -21z
m248 5 c-13 -19 -24 -33 -26 -31 -5 4 37 65 44 65 2 0 -6 -15 -18 -34z m103
11 c-10 -9 -11 -8 -5 6 3 10 9 15 12 12 3 -3 0 -11 -7 -18z m159 13 c0 -5 -4
-10 -10 -10 -5 0 -10 5 -10 10 0 6 5 10 10 10 6 0 10 -4 10 -10z m134 -5 c-4
-8 -8 -15 -10 -15 -2 0 -4 7 -4 15 0 8 4 15 10 15 5 0 7 -7 4 -15z m146 5 c0
-5 -4 -10 -8 -10 -5 0 -17 -16 -27 -35 -11 -19 -21 -33 -23 -30 -2 2 7 22 20
44 22 39 38 52 38 31z m402 -12 c-7 -7 -12 -8 -12 -2 0 6 3 14 7 17 3 4 9 5
12 2 2 -3 -1 -11 -7 -17z m-1293 -14 c-15 -18 -22 -13 -13 10 3 9 10 13 16 10
5 -3 4 -12 -3 -20z m31 -10 c-18 -21 -24 -10 -8 15 7 12 14 17 16 11 2 -6 -2
-17 -8 -26z m591 9 c-12 -20 -14 -14 -5 12 4 9 9 14 11 11 3 -2 0 -13 -6 -23z
m-877 -17 c-9 -15 -19 -25 -21 -22 -3 2 3 16 13 30 9 15 19 25 21 22 3 -2 -3
-16 -13 -30z m563 12 c-3 -8 -6 -5 -6 6 -1 11 2 17 5 13 3 -3 4 -12 1 -19z
m204 -5 c-12 -20 -14 -14 -5 12 4 9 9 14 11 11 3 -2 0 -13 -6 -23z m525 -5
c-9 -12 -16 -19 -16 -15 0 11 24 47 28 42 2 -2 -3 -14 -12 -27z m-1125 -1
c-10 -9 -11 -8 -5 6 3 10 9 15 12 12 3 -3 0 -11 -7 -18z m206 -10 c-6 -15 -16
-27 -20 -27 -5 0 0 13 9 30 22 36 29 34 11 -3z m256 13 c-3 -11 -7 -20 -9 -20
-2 0 -4 9 -4 20 0 11 4 20 9 20 5 0 7 -9 4 -20z m923 -12 c-9 -12 -16 -19 -16
-15 0 11 24 47 28 42 2 -2 -3 -14 -12 -27z m-1349 0 c-3 -8 -6 -5 -6 6 -1 11
2 17 5 13 3 -3 4 -12 1 -19z m458 12 c3 -5 1 -10 -4 -10 -6 0 -11 5 -11 10 0
6 2 10 4 10 3 0 8 -4 11 -10z m581 -18 c-17 -16 -18 -16 -5 5 7 12 15 20 18
17 3 -2 -3 -12 -13 -22z m-1510 -14 c-9 -12 -16 -19 -16 -15 0 11 24 47 28 42
2 -2 -3 -14 -12 -27z m44 2 c-6 -12 -14 -19 -17 -17 -2 3 1 15 7 27 6 12 14
19 17 17 2 -3 -1 -15 -7 -27z m347 8 c-3 -8 -6 -5 -6 6 -1 11 2 17 5 13 3 -3
4 -12 1 -19z m314 -11 c-8 -8 -11 -7 -11 4 0 20 13 34 18 19 3 -7 -1 -17 -7
-23z m742 18 c-3 -9 -8 -14 -10 -11 -3 3 -2 9 2 15 9 16 15 13 8 -4z m170 0
c-3 -9 -8 -14 -10 -11 -3 3 -2 9 2 15 9 16 15 13 8 -4z m281 -17 c4 -18 2 -28
-4 -28 -6 0 -9 4 -6 9 4 5 1 11 -6 13 -7 3 -9 12 -5 23 9 21 12 19 21 -17z
m-1232 0 c-7 -7 -12 -8 -12 -2 0 14 12 26 19 19 2 -3 -1 -11 -7 -17z m502 -9
c-6 -11 -24 -2 -24 11 0 5 7 7 15 4 8 -4 12 -10 9 -15z m230 6 c-4 -8 -11 -15
-16 -15 -6 0 -5 6 2 15 7 8 14 15 16 15 2 0 1 -7 -2 -15z m-1254 -5 c0 -5 -4
-10 -10 -10 -5 0 -10 5 -10 10 0 6 5 10 10 10 6 0 10 -4 10 -10z m681 -13
c-10 -9 -11 -8 -5 6 3 10 9 15 12 12 3 -3 0 -11 -7 -18z m-945 -29 c-9 -20
-12 -39 -8 -43 4 -5 1 -5 -5 -1 -15 8 -18 46 -4 46 5 0 13 9 16 21 4 11 9 19
11 16 2 -2 -2 -20 -10 -39z m830 10 c-18 -26 -22 -17 -5 14 6 11 13 17 16 15
3 -3 -2 -16 -11 -29z m-658 2 c-7 -10 -14 -17 -17 -15 -4 4 18 35 25 35 2 0
-1 -9 -8 -20z m562 10 c0 -5 -5 -10 -11 -10 -5 0 -7 5 -4 10 3 6 8 10 11 10 2
0 4 -4 4 -10z m341 -13 c-10 -9 -11 -8 -5 6 3 10 9 15 12 12 3 -3 0 -11 -7
-18z m-980 -10 c-10 -9 -11 -8 -5 6 3 10 9 15 12 12 3 -3 0 -11 -7 -18z m36 1
c-3 -8 -6 -5 -6 6 -1 11 2 17 5 13 3 -3 4 -12 1 -19z m223 18 c0 -3 -4 -8 -10
-11 -5 -3 -10 -1 -10 4 0 6 5 11 10 11 6 0 10 -2 10 -4z m1244 -20 c-6 -15
-24 -23 -24 -11 0 8 24 34 28 30 1 -1 0 -10 -4 -19z m-1573 -9 c-10 -9 -11 -8
-5 6 3 10 9 15 12 12 3 -3 0 -11 -7 -18z m931 -9 c-8 -8 -9 -4 -5 13 4 13 8
18 11 10 2 -7 -1 -18 -6 -23z m288 28 c0 -3 -4 -8 -10 -11 -5 -3 -10 -1 -10 4
0 6 5 11 10 11 6 0 10 -2 10 -4z m-823 -28 c-3 -8 -6 -5 -6 6 -1 11 2 17 5 13
3 -3 4 -12 1 -19z m864 -1 c-10 -9 -11 -8 -5 6 3 10 9 15 12 12 3 -3 0 -11 -7
-18z m-1381 -17 c-6 -12 -14 -20 -17 -17 -2 3 1 14 8 26 17 26 24 19 9 -9z
m1813 15 c-3 -9 -8 -14 -10 -11 -3 3 -2 9 2 15 9 16 15 13 8 -4z m317 5 c0 -5
-4 -10 -10 -10 -5 0 -10 5 -10 10 0 6 5 10 10 10 6 0 10 -4 10 -10z m-1910 -4
c0 -2 -7 -9 -15 -16 -13 -11 -14 -10 -9 4 5 14 24 23 24 12z m473 -11 c-3 -9
-8 -14 -10 -11 -3 3 -2 9 2 15 9 16 15 13 8 -4z m207 -5 c-6 -11 -13 -20 -16
-20 -2 0 0 9 6 20 6 11 13 20 16 20 2 0 0 -9 -6 -20z m944 -4 c-3 -9 -10 -16
-15 -16 -6 0 -5 9 1 21 13 24 24 20 14 -5z m246 14 c0 -5 -5 -10 -11 -10 -5 0
-7 5 -4 10 3 6 8 10 11 10 2 0 4 -4 4 -10z m-1752 -25 c-6 -14 -15 -25 -19
-25 -4 0 -2 11 4 25 7 14 15 25 19 25 4 0 2 -11 -4 -25z m28 -12 c-8 -15 -15
-25 -16 -21 0 12 23 58 27 54 3 -2 -2 -17 -11 -33z m484 2 c-7 -8 -17 -15 -22
-15 -5 0 -2 7 6 16 9 8 16 21 17 27 0 8 2 8 6 -1 3 -7 -1 -19 -7 -27z m657 13
c-3 -8 -6 -5 -6 6 -1 11 2 17 5 13 3 -3 4 -12 1 -19z m366 7 c-3 -9 -8 -14
-10 -11 -3 3 -2 9 2 15 9 16 15 13 8 -4z m-1400 -7 c-4 -7 -8 -16 -8 -20 0
-14 -15 -21 -15 -7 0 8 5 20 12 27 16 16 21 15 11 0z m268 -11 c-10 -9 -11 -8
-5 6 3 10 9 15 12 12 3 -3 0 -11 -7 -18z m41 1 c-7 -7 -12 -8 -12 -2 0 14 12
26 19 19 2 -3 -1 -11 -7 -17z m-671 -26 c-28 -54 -47 -69 -59 -45 -10 18 5 53
24 53 4 0 3 -5 -4 -12 -7 -7 -12 -21 -12 -32 0 -15 9 -8 31 27 38 57 47 61 20
9z m179 18 c-6 -11 -13 -20 -16 -20 -2 0 0 9 6 20 6 11 13 20 16 20 2 0 0 -9
-6 -20z m-100 1 c0 -5 -9 -19 -20 -32 l-21 -24 16 33 c15 31 25 41 25 23z
m-180 -5 c0 -3 -4 -8 -10 -11 -5 -3 -10 -1 -10 4 0 6 5 11 10 11 6 0 10 -2 10
-4z m575 -34 c-13 -13 -16 -13 -9 -2 5 8 9 18 10 23 4 19 6 21 11 9 3 -8 -3
-21 -12 -30z m535 23 c0 -8 -4 -15 -10 -15 -5 0 -7 7 -4 15 4 8 8 15 10 15 2
0 4 -7 4 -15z m687 7 c10 -6 10 -12 -2 -28 -13 -18 -14 -18 -8 5 4 17 3 22 -5
17 -7 -4 -12 -2 -12 3 0 13 10 14 27 3z m46 -7 c-3 -9 -8 -14 -10 -11 -3 3 -2
9 2 15 9 16 15 13 8 -4z m-683 -26 c-7 -11 -14 -18 -17 -15 -3 3 0 12 7 21 18
21 23 19 10 -6z m945 11 c3 -5 1 -10 -4 -10 -6 0 -11 5 -11 10 0 6 2 10 4 10
3 0 8 -4 11 -10z m-1778 -22 c-3 -8 -6 -5 -6 6 -1 11 2 17 5 13 3 -3 4 -12 1
-19z m803 12 c0 -5 -5 -10 -11 -10 -5 0 -7 5 -4 10 3 6 8 10 11 10 2 0 4 -4 4
-10z m76 -37 c-8 -15 -15 -22 -16 -15 0 14 22 53 28 47 2 -2 -3 -16 -12 -32z
m-755 4 c-10 -9 -11 -8 -5 6 3 10 9 15 12 12 3 -3 0 -11 -7 -18z m181 -9 c-7
-7 -12 -8 -12 -2 0 14 12 26 19 19 2 -3 -1 -11 -7 -17z m611 7 c-3 -9 -8 -14
-10 -11 -3 3 -2 9 2 15 9 16 15 13 8 -4z m260 0 c-3 -9 -8 -14 -10 -11 -3 3
-2 9 2 15 9 16 15 13 8 -4z m-1283 -25 c0 -3 -9 -6 -20 -7 -17 -1 -18 1 -8 17
9 14 14 16 20 7 4 -7 8 -14 8 -17z m46 4 c-4 -9 -9 -15 -11 -12 -3 3 -3 13 1
22 4 9 9 15 11 12 3 -3 3 -13 -1 -22z m335 1 c5 4 9 -2 9 -11 0 -14 -3 -15
-12 -6 -8 8 -15 9 -25 1 -16 -14 -17 -5 0 21 10 17 13 18 15 5 2 -8 8 -13 13
-10z m525 -1 c-4 -9 -9 -15 -11 -12 -3 3 -3 13 1 22 4 9 9 15 11 12 3 -3 3
-13 -1 -22z m34 -10 c-18 -21 -24 -10 -8 15 7 12 14 17 16 11 2 -6 -2 -17 -8
-26z m734 15 c-6 -11 -24 -2 -24 11 0 5 7 7 15 4 8 -4 12 -10 9 -15z m86 1 c0
-5 -5 -10 -11 -10 -5 0 -7 5 -4 10 3 6 8 10 11 10 2 0 4 -4 4 -10z m-1830 -26
c-7 -17 -7 -31 -1 -38 6 -7 6 -18 1 -26 -7 -11 -10 -8 -15 11 -6 23 8 79 20
79 2 0 0 -12 -5 -26z m209 -1 c-6 -15 -13 -30 -17 -33 -4 -3 -13 -16 -19 -30
-11 -24 -12 -24 -12 -3 -1 12 5 28 12 35 8 7 19 23 26 36 16 31 23 28 10 -5z
m282 0 c-8 -15 -10 -15 -11 -2 0 17 10 32 18 25 2 -3 -1 -13 -7 -23z m33 5
c-7 -22 -34 -56 -34 -43 0 9 33 65 38 65 2 0 0 -10 -4 -22z m572 -10 c-9 -12
-16 -19 -16 -15 0 11 24 47 28 42 2 -2 -3 -14 -12 -27z m-790 -4 c-4 -9 -9
-15 -11 -12 -3 3 -3 13 1 22 4 9 9 15 11 12 3 -3 3 -13 -1 -22z m774 22 c0 -2
-7 -9 -15 -16 -13 -11 -14 -10 -9 4 5 14 24 23 24 12z m246 -22 c-4 -9 -9 -15
-11 -12 -3 3 -3 13 1 22 4 9 9 15 11 12 3 -3 3 -13 -1 -22z m102 6 c-7 -10
-14 -17 -17 -15 -4 4 18 35 25 35 2 0 -1 -9 -8 -20z m275 5 c-3 -9 -8 -14 -10
-11 -3 3 -2 9 2 15 9 16 15 13 8 -4z m-1747 -22 c-10 -10 -19 5 -10 18 6 11 8
11 12 0 2 -7 1 -15 -2 -18z m171 5 c-3 -8 -6 -5 -6 6 -1 11 2 17 5 13 3 -3 4
-12 1 -19z m130 -18 c-22 -40 -42 -55 -30 -22 5 15 42 62 49 62 1 0 -7 -18
-19 -40z m81 18 c-22 -38 -48 -71 -48 -60 0 6 7 17 15 26 8 8 15 18 15 23 0 8
20 33 27 33 2 0 -2 -10 -9 -22z m1039 6 c3 -9 -2 -23 -13 -32 -10 -9 -13 -10
-6 -2 6 7 12 20 12 28 0 12 -3 12 -15 2 -13 -11 -14 -10 -9 4 8 20 23 21 31 0z
m421 -4 c-7 -10 -14 -17 -17 -15 -4 4 18 35 25 35 2 0 -1 -9 -8 -20z m52 16
c0 -2 -7 -7 -16 -10 -8 -3 -12 -2 -9 4 6 10 25 14 25 6z m-2005 -25 c-3 -6
-11 -11 -16 -11 -5 0 -4 6 3 14 14 16 24 13 13 -3z m212 -3 c-3 -8 -6 -5 -6 6
-1 11 2 17 5 13 3 -3 4 -12 1 -19z m310 -10 c-3 -8 -6 -5 -6 6 -1 11 2 17 5
13 3 -3 4 -12 1 -19z m198 -9 c-9 -17 -19 -29 -22 -26 -5 5 25 57 33 57 3 0
-3 -14 -11 -31z m864 -16 c-23 -29 -23 -27 1 21 8 15 16 23 18 17 2 -6 -6 -23
-19 -38z m174 32 c-3 -9 -8 -14 -10 -11 -3 3 -2 9 2 15 9 16 15 13 8 -4z m32
-14 c-8 -17 -21 -33 -27 -37 -8 -5 -7 1 3 16 8 14 19 31 23 38 15 25 16 11 1
-17z m-1415 7 c0 -7 -12 -26 -26 -43 l-25 -30 23 42 c25 46 28 50 28 31z m312
-10 c-7 -7 -12 -8 -12 -2 0 14 12 26 19 19 2 -3 -1 -11 -7 -17z m63 -9 c-9
-17 -19 -29 -22 -26 -5 5 25 57 33 57 3 0 -3 -14 -11 -31z m615 10 c0 -6 -4
-7 -10 -4 -5 3 -10 11 -10 16 0 6 5 7 10 4 6 -3 10 -11 10 -16z m493 6 c-3 -9
-8 -14 -10 -11 -3 3 -2 9 2 15 9 16 15 13 8 -4z m-1593 -14 c0 -10 -7 -21 -15
-24 -12 -5 -12 -2 -3 18 13 30 18 31 18 6z m-143 -13 c-3 -8 -6 -5 -6 6 -1 11
2 17 5 13 3 -3 4 -12 1 -19z m113 18 c0 -3 -4 -8 -10 -11 -5 -3 -10 -1 -10 4
0 6 5 11 10 11 6 0 10 -2 10 -4z m34 -55 c-29 -45 -36 -50 -32 -24 3 19 49 76
55 69 3 -2 -8 -23 -23 -45z m276 45 c0 -2 -8 -10 -17 -17 -16 -13 -17 -12 -4
4 13 16 21 21 21 13z m-367 -21 c-3 -9 -8 -14 -10 -11 -3 3 -2 9 2 15 9 16 15
13 8 -4z m1627 -5 c-6 -11 -13 -20 -16 -20 -2 0 0 9 6 20 6 11 13 20 16 20 2
0 0 -9 -6 -20z m231 -3 c-10 -9 -11 -8 -5 6 3 10 9 15 12 12 3 -3 0 -11 -7
-18z m-1280 -10 c-10 -9 -11 -8 -5 6 3 10 9 15 12 12 3 -3 0 -11 -7 -18z
m1205 -5 c-18 -16 -18 -16 -6 6 6 13 14 21 18 18 3 -4 -2 -14 -12 -24z m48 13
c-4 -8 -8 -15 -10 -15 -2 0 -4 7 -4 15 0 8 4 15 10 15 5 0 7 -7 4 -15z m-1637
-17 c-3 -8 -6 -5 -6 6 -1 11 2 17 5 13 3 -3 4 -12 1 -19z m463 18 c0 -2 -7 -9
-15 -16 -13 -11 -14 -10 -9 4 5 14 24 23 24 12z m-643 -28 c-3 -8 -6 -5 -6 6
-1 11 2 17 5 13 3 -3 4 -12 1 -19z m24 -5 c-12 -20 -14 -14 -5 12 4 9 9 14 11
11 3 -2 0 -13 -6 -23z m224 17 c3 -5 1 -10 -4 -10 -6 0 -11 5 -11 10 0 6 2 10
4 10 3 0 8 -4 11 -10z m23 -15 c-6 -14 -13 -23 -15 -21 -5 5 15 46 22 46 3 0
-1 -11 -7 -25z m52 15 c0 -5 -4 -10 -9 -10 -5 0 -13 -9 -16 -20 -3 -11 -11
-20 -17 -20 -6 0 -6 6 2 15 7 8 9 15 6 15 -9 0 17 29 27 30 4 0 7 -4 7 -10z
m92 -22 c-8 -8 -9 -4 -5 13 4 13 8 18 11 10 2 -7 -1 -18 -6 -23z m92 -13 c-23
-35 -29 -25 -7 13 10 18 19 27 21 22 2 -5 -4 -20 -14 -35z m389 30 c-3 -9 -8
-14 -10 -11 -3 3 -2 9 2 15 9 16 15 13 8 -4z m247 5 c0 -5 -5 -10 -11 -10 -5
0 -7 5 -4 10 3 6 8 10 11 10 2 0 4 -4 4 -10z m147 -12 c-3 -8 -6 -5 -6 6 -1
11 2 17 5 13 3 -3 4 -12 1 -19z m-717 -27 c-25 -36 -39 -42 -18 -8 8 12 18 28
22 35 5 7 10 11 13 8 3 -3 -5 -19 -17 -35z m500 35 c0 -3 -4 -8 -10 -11 -5 -3
-10 -1 -10 4 0 6 5 11 10 11 6 0 10 -2 10 -4z m560 -6 c0 -5 -5 -10 -11 -10
-5 0 -7 5 -4 10 3 6 8 10 11 10 2 0 4 -4 4 -10z m189 -22 c-7 -13 -14 -18 -16
-11 -3 7 2 19 9 27 18 20 22 12 7 -16z m-1276 2 c-3 -11 -9 -20 -15 -20 -5 0
-4 9 2 20 6 11 12 20 14 20 2 0 2 -9 -1 -20z m-313 3 c0 -5 -8 -17 -17 -28
-14 -18 -15 -18 -9 -2 3 10 6 23 6 28 0 5 5 9 10 9 6 0 10 -3 10 -7z m79 -42
c-29 -39 -33 -35 -12 12 10 22 21 33 26 28 5 -5 0 -22 -14 -40z m56 39 c3 -5
1 -10 -4 -10 -6 0 -11 5 -11 10 0 6 2 10 4 10 3 0 8 -4 11 -10z m266 -13 c-10
-9 -11 -8 -5 6 3 10 9 15 12 12 3 -3 0 -11 -7 -18z m1205 -9 c-9 -12 -16 -19
-16 -15 0 11 24 47 28 42 2 -2 -3 -14 -12 -27z m-1692 -2 c-6 -16 -24 -23 -24
-8 0 10 22 33 27 28 2 -2 1 -11 -3 -20z m25 -15 c-8 -17 -17 -31 -20 -31 -3 0
-14 -18 -24 -40 -17 -37 -35 -53 -35 -30 0 6 3 10 8 10 4 0 23 29 42 64 35 66
53 82 29 27z m878 17 c-3 -8 -6 -5 -6 6 -1 11 2 17 5 13 3 -3 4 -12 1 -19z
m356 7 c-3 -9 -8 -14 -10 -11 -3 3 -2 9 2 15 9 16 15 13 8 -4z m504 -7 c-3 -8
-6 -5 -6 6 -1 11 2 17 5 13 3 -3 4 -12 1 -19z m-1144 -3 c-3 -9 -8 -14 -10
-11 -3 3 -2 9 2 15 9 16 15 13 8 -4z m-293 -27 c0 -5 -7 -3 -15 6 -8 8 -15 18
-15 22 0 3 7 1 15 -6 8 -7 15 -17 15 -22z m111 9 c-10 -9 -11 -8 -5 6 3 10 9
15 12 12 3 -3 0 -11 -7 -18z m113 8 c-4 -8 -8 -15 -10 -15 -2 0 -4 7 -4 15 0
8 4 15 10 15 5 0 7 -7 4 -15z m100 -9 c-3 -9 -10 -16 -15 -16 -6 0 -5 9 1 21
13 24 24 20 14 -5z m-387 -8 c-3 -8 -6 -5 -6 6 -1 11 2 17 5 13 3 -3 4 -12 1
-19z m113 12 c0 -5 -5 -10 -11 -10 -5 0 -7 5 -4 10 3 6 8 10 11 10 2 0 4 -4 4
-10z m1130 -34 c0 -5 -7 -3 -15 4 -8 7 -15 20 -15 28 0 13 3 12 15 -4 8 -10
15 -23 15 -28z m20 27 c0 -10 -4 -14 -8 -8 -4 6 -11 13 -16 18 -5 4 -2 7 7 7
10 0 17 -8 17 -17z m-1764 -21 c-18 -16 -18 -16 -6 6 6 13 14 21 18 18 3 -4
-2 -14 -12 -24z m-114 -14 c-8 -8 -9 -4 -5 13 4 13 8 18 11 10 2 -7 -1 -18 -6
-23z m58 28 c0 -3 -4 -8 -10 -11 -5 -3 -10 -1 -10 4 0 6 5 11 10 11 6 0 10 -2
10 -4z m1736 -22 c-4 -9 -9 -15 -11 -12 -3 3 -3 13 1 22 4 9 9 15 11 12 3 -3
3 -13 -1 -22z m-1375 -7 c-10 -9 -11 -8 -5 6 3 10 9 15 12 12 3 -3 0 -11 -7
-18z m275 -4 c-18 -35 -45 -70 -46 -60 0 10 49 87 55 87 3 0 -1 -12 -9 -27z
m154 23 c0 -3 -4 -8 -10 -11 -5 -3 -10 -1 -10 4 0 6 5 11 10 11 6 0 10 -2 10
-4z m1191 -23 c-12 -20 -14 -14 -5 12 4 9 9 14 11 11 3 -2 0 -13 -6 -23z
m-1803 -3 c-7 -10 -14 -17 -17 -15 -4 4 18 35 25 35 2 0 -1 -9 -8 -20z m-65
-11 c-4 -13 -9 -17 -15 -11 -11 11 -3 32 12 32 4 0 6 -9 3 -21z m548 -12 c-8
-8 -11 -7 -11 4 0 20 13 34 18 19 3 -7 -1 -17 -7 -23z m-434 11 c2 6 9 12 14
12 11 0 -23 -69 -34 -70 -4 0 -3 10 4 22 10 18 9 20 -5 15 -18 -7 -19 -6 -10
18 6 13 9 14 16 3 7 -10 11 -10 15 0z m497 -13 c-17 -26 -24 -31 -24 -16 0 10
28 41 36 41 2 0 -3 -11 -12 -25z m950 1 c-3 -9 -10 -16 -15 -16 -5 0 -4 9 3
20 14 22 21 20 12 -4z m71 -5 c-8 -17 -21 -33 -27 -37 -8 -5 -7 1 3 16 8 14
19 31 23 38 15 25 16 11 1 -17z m-1715 10 c0 -5 -9 -19 -21 -32 l-20 -24 17
33 c19 33 24 38 24 23z m256 -38 c-14 -20 -26 -43 -26 -49 0 -6 -7 -17 -15
-24 -24 -20 -11 11 41 96 8 14 18 23 21 21 2 -3 -7 -23 -21 -44z m64 37 c0 -5
-5 -10 -11 -10 -5 0 -7 5 -4 10 3 6 8 10 11 10 2 0 4 -4 4 -10z m1204 -37
c-12 -13 -15 -13 -11 -3 4 8 10 24 14 35 6 18 8 18 11 3 2 -10 -4 -26 -14 -35z
m148 15 c-8 -8 -9 -4 -5 13 4 13 8 18 11 10 2 -7 -1 -18 -6 -23z m-1651 -1
c-10 -9 -11 -8 -5 6 3 10 9 15 12 12 3 -3 0 -11 -7 -18z m632 6 c-7 -3 -13
-12 -14 -21 0 -11 -2 -13 -6 -4 -6 15 17 46 26 36 3 -4 0 -9 -6 -11z m90 -19
c-10 -19 -19 -31 -21 -25 -3 9 26 61 34 61 2 0 -4 -16 -13 -36z m-312 3 c-10
-9 -11 -8 -5 6 3 10 9 15 12 12 3 -3 0 -11 -7 -18z m456 1 c-3 -8 -6 -5 -6 6
-1 11 2 17 5 13 3 -3 4 -12 1 -19z m1148 3 c-3 -6 -11 -8 -17 -5 -6 4 -5 9 3
15 16 10 23 4 14 -10z m-2085 0 c0 -6 -4 -13 -10 -16 -5 -3 -10 1 -10 9 0 9 5
16 10 16 6 0 10 -4 10 -9z m384 -19 c-2 -27 -43 -118 -44 -97 0 6 9 27 20 48
22 40 12 51 -14 15 -13 -19 -14 -20 -9 -3 5 15 42 65 48 65 1 0 0 -13 -1 -28z
m1392 -4 c-9 -12 -16 -19 -16 -15 0 11 24 47 28 42 2 -2 -3 -14 -12 -27z
m-1571 12 c3 -5 1 -10 -4 -10 -6 0 -11 5 -11 10 0 6 2 10 4 10 3 0 8 -4 11
-10z m133 -7 c-28 -32 -52 -87 -39 -91 16 -5 14 -19 -9 -42 -21 -21 -28 -13
-7 9 9 10 9 15 0 18 -9 3 -9 10 0 31 20 45 51 92 61 92 5 0 2 -8 -6 -17z m82
7 c0 -5 -4 -10 -10 -10 -5 0 -10 5 -10 10 0 6 5 10 10 10 6 0 10 -4 10 -10z
m24 -2 c-25 -41 -54 -80 -54 -72 0 9 51 84 57 84 2 0 1 -6 -3 -12z m216 8 c0
-3 -4 -8 -10 -11 -5 -3 -10 -1 -10 4 0 6 5 11 10 11 6 0 10 -2 10 -4z m155
-25 c-8 -17 -21 -33 -27 -37 -8 -5 -7 1 3 16 8 14 19 31 23 38 15 25 16 11 1
-17z m993 9 c-7 -10 -14 -17 -17 -15 -4 4 18 35 25 35 2 0 -1 -9 -8 -20z
m-1102 -16 c-4 -9 -9 -15 -11 -12 -3 3 -3 13 1 22 4 9 9 15 11 12 3 -3 3 -13
-1 -22z m34 -10 c-18 -21 -24 -10 -8 15 7 12 14 17 16 11 2 -6 -2 -17 -8 -26z
m-286 -8 c-9 -15 -19 -25 -21 -22 -3 2 3 16 13 30 9 15 19 25 21 22 3 -2 -3
-16 -13 -30z m1374 14 c-7 -10 -14 -17 -17 -15 -4 4 18 35 25 35 2 0 -1 -9 -8
-20z m-1207 -13 c-10 -9 -11 -8 -5 6 3 10 9 15 12 12 3 -3 0 -11 -7 -18z m206
-10 c-6 -15 -16 -27 -20 -27 -5 0 0 13 9 30 22 36 29 34 11 -3z m685 11 c-7
-7 -12 -8 -12 -2 0 14 12 26 19 19 2 -3 -1 -11 -7 -17z m24 -14 c-19 -19 -21
-11 -4 16 7 11 14 16 16 10 2 -5 -4 -17 -12 -26z m-879 4 c-3 -8 -6 -5 -6 6
-1 11 2 17 5 13 3 -3 4 -12 1 -19z m904 -19 c-12 -19 -21 -30 -21 -26 0 12 33
67 38 63 1 -2 -6 -19 -17 -37z m156 19 c-3 -8 -6 -5 -6 6 -1 11 2 17 5 13 3
-3 4 -12 1 -19z m-1538 -32 c-12 -20 -23 -35 -26 -33 -2 3 6 21 18 41 12 20
23 35 26 33 2 -3 -6 -21 -18 -41z m51 14 c-6 -12 -14 -19 -17 -17 -2 3 1 15 7
27 6 12 14 19 17 17 2 -3 -1 -15 -7 -27z m347 8 c-3 -8 -6 -5 -6 6 -1 11 2 17
5 13 3 -3 4 -12 1 -19z m314 -11 c-8 -8 -11 -7 -11 4 0 20 13 34 18 19 3 -7
-1 -17 -7 -23z m740 10 c-10 -9 -11 -8 -5 6 3 10 9 15 12 12 3 -3 0 -11 -7
-18z m41 1 c-7 -7 -12 -8 -12 -2 0 14 12 26 19 19 2 -3 -1 -11 -7 -17z m-826
-16 c-18 -16 -18 -16 -6 6 6 13 14 21 18 18 3 -4 -2 -14 -12 -24z m607 -2 c-9
-16 -21 -30 -26 -30 -5 0 1 14 13 30 12 17 24 30 26 30 3 0 -3 -13 -13 -30z
m-1293 10 c0 -5 -5 -10 -11 -10 -5 0 -7 5 -4 10 3 6 8 10 11 10 2 0 4 -4 4
-10z m170 -10 c0 -5 -4 -10 -10 -10 -5 0 -10 5 -10 10 0 6 5 10 10 10 6 0 10
-4 10 -10z m1077 -12 c-3 -8 -6 -5 -6 6 -1 11 2 17 5 13 3 -3 4 -12 1 -19z
m634 -5 c-12 -20 -14 -14 -5 12 4 9 9 14 11 11 3 -2 0 -13 -6 -23z m-1145 -15
c-18 -26 -22 -17 -5 14 6 11 13 17 16 15 3 -3 -2 -16 -11 -29z m40 4 c-18 -16
-18 -16 -6 6 6 13 14 21 18 18 3 -4 -2 -14 -12 -24z m885 1 c-12 -20 -14 -14
-5 12 4 9 9 14 11 11 3 -2 0 -13 -6 -23z m-1587 -8 c-9 -14 -18 -25 -21 -25
-5 0 5 18 20 38 17 22 18 13 1 -13z m760 -5 c-10 -16 -20 -28 -22 -26 -4 5 28
56 35 56 2 0 -4 -13 -13 -30z m-574 16 c0 -3 -4 -8 -10 -11 -5 -3 -10 -1 -10
4 0 6 5 11 10 11 6 0 10 -2 10 -4z m717 -18 c-3 -8 -6 -5 -6 6 -1 11 2 17 5
13 3 -3 4 -12 1 -19z m184 -1 c-10 -9 -11 -8 -5 6 3 10 9 15 12 12 3 -3 0 -11
-7 -18z m137 -8 c-14 -25 -38 -53 -38 -45 0 11 43 77 47 72 2 -2 -2 -14 -9
-27z m72 6 c-7 -9 -15 -13 -17 -11 -7 7 7 26 19 26 6 0 6 -6 -2 -15z m413 -20
c-9 -19 -18 -33 -21 -31 -4 5 26 66 33 66 3 0 -3 -16 -12 -35z m-1449 10 c-4
-8 -8 -15 -10 -15 -2 0 -4 7 -4 15 0 8 4 15 10 15 5 0 7 -7 4 -15z m529 0 c-3
-9 -8 -14 -10 -11 -3 3 -2 9 2 15 9 16 15 13 8 -4z m528 -12 c-12 -20 -14 -14
-5 12 4 9 9 14 11 11 3 -2 0 -13 -6 -23z m-1577 -7 c-3 -9 -10 -16 -15 -16 -5
0 -4 9 3 20 14 22 21 20 12 -4z m967 1 c-10 -9 -11 -8 -5 6 3 10 9 15 12 12 3
-3 0 -11 -7 -18z m640 -4 c-12 -20 -14 -14 -5 12 4 9 9 14 11 11 3 -2 0 -13
-6 -23z m-918 2 c-3 -9 -8 -14 -10 -11 -3 3 -2 9 2 15 9 16 15 13 8 -4z m812
-4 c-3 -11 -1 -22 5 -26 5 -3 10 2 11 12 0 10 5 3 10 -16 6 -18 8 -36 5 -39
-3 -3 -6 3 -6 12 0 12 -5 16 -16 12 -8 -3 -12 -2 -9 4 3 6 -1 13 -9 16 -12 5
-13 9 -3 25 15 24 20 24 12 0z m497 -3 c-7 -7 -12 -8 -12 -2 0 14 12 26 19 19
2 -3 -1 -11 -7 -17z m-1842 2 c0 -5 -5 -10 -11 -10 -5 0 -7 5 -4 10 3 6 8 10
11 10 2 0 4 -4 4 -10z m40 2 c0 -5 -7 -17 -16 -28 -14 -17 -15 -17 -10 -1 3
10 6 23 6 28 0 5 5 9 10 9 6 0 10 -4 10 -8z m40 4 c0 -3 -4 -8 -10 -11 -5 -3
-10 -1 -10 4 0 6 5 11 10 11 6 0 10 -2 10 -4z m126 -33 c-8 -15 -15 -22 -16
-15 0 14 22 53 28 47 2 -2 -3 -16 -12 -32z m177 22 c-3 -9 -8 -14 -10 -11 -3
3 -2 9 2 15 9 16 15 13 8 -4z m491 6 c3 -5 -1 -14 -8 -20 -12 -10 -13 -8 -9 8
6 23 9 25 17 12z m36 2 c0 -5 -10 -19 -21 -33 l-21 -25 18 33 c18 32 24 38 24
25z m-672 -28 c-6 -14 -13 -23 -15 -21 -5 5 15 46 22 46 3 0 -1 -11 -7 -25z
m343 2 c-10 -9 -11 -8 -5 6 3 10 9 15 12 12 3 -3 0 -11 -7 -18z m41 1 c-7 -7
-12 -8 -12 -2 0 14 12 26 19 19 2 -3 -1 -11 -7 -17z m78 12 c0 -5 -5 -10 -11
-10 -5 0 -7 5 -4 10 3 6 8 10 11 10 2 0 4 -4 4 -10z m-274 -42 c-19 -27 -21
-19 -4 18 7 14 14 21 16 15 2 -6 -4 -21 -12 -33z m544 28 c0 -8 -4 -18 -10
-21 -5 -3 -10 3 -10 14 0 12 5 21 10 21 6 0 10 -6 10 -14z m498 -6 c-7 -10
-14 -17 -17 -15 -4 4 18 35 25 35 2 0 -1 -9 -8 -20z m210 0 c-7 -10 -14 -17
-17 -15 -4 4 18 35 25 35 2 0 -1 -9 -8 -20z m52 16 c0 -2 -8 -10 -17 -17 -16
-13 -17 -12 -4 4 13 16 21 21 21 13z m-800 -16 c0 -5 -4 -10 -10 -10 -5 0 -10
5 -10 10 0 6 5 10 10 10 6 0 10 -4 10 -10z m58 -19 c-7 -12 -16 -21 -21 -21
-4 0 0 11 10 24 22 29 30 27 11 -3z m232 22 c0 -5 -10 -19 -21 -33 l-21 -25
18 33 c18 32 24 38 24 25z m30 -13 c0 -5 -5 -10 -11 -10 -5 0 -7 5 -4 10 3 6
8 10 11 10 2 0 4 -4 4 -10z m540 -5 c11 -13 10 -14 -4 -9 -9 3 -16 10 -16 15
0 13 6 11 20 -6z m-1722 -20 c-6 -13 -15 -22 -20 -19 -5 3 -2 15 8 25 23 25
26 24 12 -6z m66 14 c11 9 16 10 16 2 0 -6 -4 -11 -9 -11 -5 0 -11 -8 -15 -17
-6 -19 -27 -54 -37 -63 -3 -3 -13 -16 -22 -30 -9 -13 -17 -20 -17 -14 0 5 14
29 31 52 24 33 30 49 25 70 -5 19 -4 23 3 13 8 -12 12 -12 25 -2z m1487 -16
c-12 -20 -14 -14 -5 12 4 9 9 14 11 11 3 -2 0 -13 -6 -23z m130 -10 c-12 -20
-14 -14 -5 12 4 9 9 14 11 11 3 -2 0 -13 -6 -23z m-1588 0 c-7 -19 -33 -49
-33 -38 0 7 31 55 36 55 2 0 0 -8 -3 -17z m195 -18 c-11 -20 -17 -39 -14 -43
7 -6 21 10 29 33 3 6 6 8 9 5 3 -3 -7 -24 -22 -47 l-27 -42 2 44 c0 27 8 52
20 65 26 29 27 25 3 -15z m1302 25 c0 -5 -4 -10 -10 -10 -5 0 -10 5 -10 10 0
6 5 10 10 10 6 0 10 -4 10 -10z m161 -13 c-10 -9 -11 -8 -5 6 3 10 9 15 12 12
3 -3 0 -11 -7 -18z m-1752 -31 c-12 -20 -23 -35 -26 -32 -2 2 6 20 19 39 30
46 35 40 7 -7z m-101 9 c-6 -14 -13 -23 -15 -21 -5 5 15 46 22 46 3 0 -1 -11
-7 -25z m275 -17 c-18 -33 -43 -64 -43 -54 0 13 24 56 31 56 4 0 11 9 14 21 4
11 9 18 12 15 3 -2 -3 -19 -14 -38z m1294 20 c-3 -8 -6 -5 -6 6 -1 11 2 17 5
13 3 -3 4 -12 1 -19z m254 -31 c-9 -9 -11 -8 -6 4 4 10 2 20 -4 24 -6 3 -11
11 -11 18 0 6 7 1 16 -12 13 -17 14 -25 5 -34z m-1367 19 c-3 -9 -10 -16 -15
-16 -5 0 -4 9 3 20 14 22 21 20 12 -4z m-384 7 c0 -5 -4 -15 -10 -23 -6 -9 -5
-19 2 -28 8 -10 8 -17 -3 -27 -14 -15 -15 -8 -10 68 1 16 21 26 21 10z m1262
-25 c-8 -8 -9 -4 -5 13 4 13 8 18 11 10 2 -7 -1 -18 -6 -23z m178 2 c-6 -12
-14 -19 -17 -17 -2 3 1 15 7 27 6 12 14 19 17 17 2 -3 -1 -15 -7 -27z m-1624
8 c-3 -7 -9 -21 -12 -30 -4 -10 -11 -18 -16 -18 -5 0 -7 6 -4 13 3 6 9 20 12
30 4 9 11 17 16 17 5 0 7 -6 4 -12z m24 -23 c-6 -15 -13 -25 -16 -23 -2 3 1
17 7 32 16 34 23 27 9 -9z m108 9 c-7 -15 -14 -21 -16 -15 -2 7 2 18 8 26 18
22 21 18 8 -11z m1665 11 c-3 -9 -8 -14 -10 -11 -3 3 -2 9 2 15 9 16 15 13 8
-4z m-1508 -36 c-9 -20 -14 -25 -11 -12 2 12 -1 24 -8 27 -6 2 -3 5 7 5 9 1
17 6 17 13 0 6 2 9 6 6 3 -3 -2 -21 -11 -39z m391 9 c-9 -12 -16 -19 -16 -15
0 11 24 47 28 42 2 -2 -3 -14 -12 -27z m969 5 c-35 -55 -45 -67 -45 -58 0 10
50 85 58 85 2 0 -4 -12 -13 -27z m-55 7 c0 -5 -7 -10 -16 -10 -8 0 -12 5 -9
10 3 6 10 10 16 10 5 0 9 -4 9 -10z m-964 -28 c-17 -16 -18 -16 -5 5 7 12 15
20 18 17 3 -2 -3 -12 -13 -22z m884 24 c0 -3 -4 -8 -10 -11 -5 -3 -10 -1 -10
4 0 6 5 11 10 11 6 0 10 -2 10 -4z m161 -19 c-10 -9 -11 -8 -5 6 3 10 9 15 12
12 3 -3 0 -11 -7 -18z m-1429 -9 c-7 -7 -12 -8 -12 -2 0 14 12 26 19 19 2 -3
-1 -11 -7 -17z m321 7 c-3 -9 -8 -14 -10 -11 -3 3 -2 9 2 15 9 16 15 13 8 -4z
m170 0 c-3 -9 -8 -14 -10 -11 -3 3 -2 9 2 15 9 16 15 13 8 -4z m-593 -4 c0 -5
-9 -19 -21 -32 l-20 -24 17 33 c19 33 24 38 24 23z m700 -1 c0 -5 -5 -10 -11
-10 -5 0 -7 5 -4 10 3 6 8 10 11 10 2 0 4 -4 4 -10z m670 -24 c-7 -10 -8 -16
0 -21 5 -3 10 -11 10 -18 0 -7 -6 -5 -16 4 -13 13 -13 20 -2 44 7 15 14 22 16
16 2 -7 -1 -18 -8 -25z m90 24 c0 -5 -5 -10 -11 -10 -5 0 -7 5 -4 10 3 6 8 10
11 10 2 0 4 -4 4 -10z m-1297 -15 c-3 -9 -8 -14 -10 -11 -3 3 -2 9 2 15 9 16
15 13 8 -4z m207 -4 c-16 -31 -32 -36 -18 -7 6 14 15 26 20 26 5 0 4 -9 -2
-19z m1422 2 c-6 -3 -10 -8 -7 -13 3 -4 -2 -13 -10 -20 -13 -11 -14 -10 -9 6
10 27 26 46 33 38 3 -4 0 -9 -7 -11z m-1499 -21 c-3 -12 -9 -19 -14 -16 -5 3
-3 14 3 24 15 24 19 21 11 -8z m1227 24 c0 -3 -4 -8 -10 -11 -5 -3 -10 -1 -10
4 0 6 5 11 10 11 6 0 10 -2 10 -4z m-1600 -10 c0 -3 -4 -8 -10 -11 -5 -3 -10
-1 -10 4 0 6 5 11 10 11 6 0 10 -2 10 -4z m150 -36 c-11 -22 -22 -40 -25 -40
-6 0 15 50 28 68 19 24 17 11 -3 -28z m106 12 c-17 -16 -18 -16 -5 5 7 12 15
20 18 17 3 -2 -3 -12 -13 -22z m47 13 c-3 -9 -8 -14 -10 -11 -3 3 -2 9 2 15 9
16 15 13 8 -4z m338 -8 c-10 -9 -11 -8 -5 6 3 10 9 15 12 12 3 -3 0 -11 -7
-18z m311 1 c-7 -7 -12 -8 -12 -2 0 6 3 14 7 17 3 4 9 5 12 2 2 -3 -1 -11 -7
-17z m78 12 c0 -5 -5 -10 -11 -10 -5 0 -7 5 -4 10 3 6 8 10 11 10 2 0 4 -4 4
-10z m454 -5 c-4 -8 -8 -15 -10 -15 -2 0 -4 7 -4 15 0 8 4 15 10 15 5 0 7 -7
4 -15z m41 5 c-3 -5 -11 -10 -16 -10 -6 0 -7 5 -4 10 3 6 11 10 16 10 6 0 7
-4 4 -10z m225 -15 c0 -8 -4 -16 -9 -19 -5 -3 -8 5 -7 18 1 25 16 26 16 1z
m171 2 c-10 -9 -11 -8 -5 6 3 10 9 15 12 12 3 -3 0 -11 -7 -18z m-1728 -2 c-3
-9 -8 -14 -10 -11 -3 3 -2 9 2 15 9 16 15 13 8 -4z m1420 -2 c-7 -19 -33 -49
-33 -38 0 7 31 55 36 55 2 0 0 -8 -3 -17z m29 -5 c-7 -7 -12 -8 -12 -2 0 14
12 26 19 19 2 -3 -1 -11 -7 -17z m-1108 -12 c-6 -15 -24 -23 -24 -11 0 8 24
34 28 30 1 -1 0 -10 -4 -19z m862 -2 c-4 -9 -9 -15 -11 -12 -3 3 -3 13 1 22 4
9 9 15 11 12 3 -3 3 -13 -1 -22z m-1276 -3 c0 -5 -7 -11 -14 -14 -10 -4 -13
-1 -9 9 6 15 23 19 23 5z m155 0 c3 -5 2 -12 -3 -15 -5 -3 -9 1 -9 9 0 17 3
19 12 6z m37 -13 c-7 -7 -12 -8 -12 -2 0 6 3 14 7 17 3 4 9 5 12 2 2 -3 -1
-11 -7 -17z m38 14 c0 -5 -7 -17 -15 -28 -14 -18 -14 -17 -4 9 12 27 19 34 19
19z m61 -5 c-6 -8 -8 -17 -4 -20 3 -4 1 -7 -5 -7 -15 0 -15 13 0 28 16 16 23
15 9 -1z m515 -23 c-19 -18 -21 -11 -4 19 7 14 13 17 15 10 3 -7 -3 -20 -11
-29z m-273 11 c-3 -9 -8 -14 -10 -11 -3 3 -2 9 2 15 9 16 15 13 8 -4z m-298
-33 c-15 -16 -16 -15 -4 12 7 15 15 23 17 16 3 -7 -3 -19 -13 -28z m76 15
c-10 -9 -11 -8 -5 6 3 10 9 15 12 12 3 -3 0 -11 -7 -18z m42 8 c-3 -9 -8 -14
-10 -11 -3 3 -2 9 2 15 9 16 15 13 8 -4z m196 -31 c-12 -21 -25 -32 -27 -26
-2 7 -8 10 -13 6 -5 -3 -9 2 -9 12 0 13 3 14 14 5 12 -10 18 -7 31 19 9 18 19
29 22 26 3 -3 -5 -22 -18 -42z m661 16 c-6 -12 -14 -20 -17 -17 -2 3 1 14 8
26 7 11 15 18 17 16 2 -2 -2 -13 -8 -25z m75 1 c-14 -28 -35 -49 -35 -36 0 7
42 65 47 65 2 0 -3 -13 -12 -29z m68 14 c-3 -9 -8 -14 -10 -11 -3 3 -2 9 2 15
9 16 15 13 8 -4z m-760 -10 c-3 -9 -8 -14 -10 -11 -3 3 -2 9 2 15 9 16 15 13
8 -4z m317 5 c0 -5 -5 -10 -11 -10 -5 0 -7 5 -4 10 3 6 8 10 11 10 2 0 4 -4 4
-10z m184 -37 c-12 -13 -15 -13 -11 -3 4 8 10 24 14 35 6 18 8 18 11 3 2 -10
-4 -26 -14 -35z m148 15 c-8 -8 -9 -4 -5 13 4 13 8 18 11 10 2 -7 -1 -18 -6
-23z m402 -15 c-32 -58 -44 -72 -44 -52 0 9 9 24 20 34 11 10 20 23 20 30 0
10 19 35 27 35 1 0 -9 -21 -23 -47z m-1762 5 c-8 -8 -9 -4 -5 13 4 13 8 18 11
10 2 -7 -1 -18 -6 -23z m578 28 c0 -2 -8 -10 -17 -17 -16 -13 -17 -12 -4 4 13
16 21 21 21 13z m980 -31 c-9 -11 -15 -12 -25 -2 -7 7 -11 16 -8 21 3 4 9 2
14 -5 6 -10 10 -9 15 6 5 12 9 14 12 7 2 -7 -1 -19 -8 -27z m260 25 c0 -5 -5
-10 -11 -10 -5 0 -7 5 -4 10 3 6 8 10 11 10 2 0 4 -4 4 -10z m-1439 -23 c-10
-9 -11 -8 -5 6 3 10 9 15 12 12 3 -3 0 -11 -7 -18z m119 19 c0 -3 -4 -8 -10
-11 -5 -3 -10 -1 -10 4 0 6 5 11 10 11 6 0 10 -2 10 -4z m976 -43 c-14 -20
-26 -34 -26 -29 0 13 42 78 47 72 3 -2 -7 -22 -21 -43z m87 -27 c-41 -71 -61
-88 -35 -31 9 19 20 35 24 35 4 0 8 7 8 15 0 8 4 15 9 15 5 0 13 9 16 21 4 11
9 18 12 16 3 -3 -13 -35 -34 -71z m302 44 c-9 -16 -18 -30 -21 -30 -2 0 2 14
11 30 9 17 18 30 21 30 2 0 -2 -13 -11 -30z m-1698 11 c22 19 14 -7 -9 -27
-12 -10 -18 -13 -14 -6 4 7 2 21 -5 30 -11 14 -11 15 1 5 10 -9 17 -10 27 -2z
m1507 -38 c-14 -27 -30 -52 -35 -57 -17 -19 -9 5 16 44 14 22 25 44 25 50 0 5
5 10 10 10 6 0 -1 -21 -16 -47z m-1444 16 c-7 -11 -14 -18 -17 -15 -3 3 0 12
7 21 18 21 23 19 10 -6z m460 1 c-6 -11 -12 -20 -14 -20 -2 0 -2 9 1 20 3 11
9 20 15 20 5 0 4 -9 -2 -20z m1300 -1 c-7 -11 -14 -18 -17 -15 -3 3 0 12 7 21
18 21 23 19 10 -6z m-1090 7 c0 -3 -4 -8 -10 -11 -5 -3 -10 -1 -10 4 0 6 5 11
10 11 6 0 10 -2 10 -4z m544 -11 c-4 -8 -11 -12 -16 -9 -6 4 -5 10 3 15 19 12
19 11 13 -6z m-1158 -22 c-18 -35 -45 -70 -46 -60 0 10 49 87 55 87 3 0 -1
-12 -9 -27z m154 23 c0 -3 -4 -8 -10 -11 -5 -3 -10 -1 -10 4 0 6 5 11 10 11 6
0 10 -2 10 -4z m576 -28 c-9 -12 -16 -19 -16 -15 0 11 24 47 28 42 2 -2 -3
-14 -12 -27z m567 -27 c-26 -48 -43 -64 -43 -41 0 6 5 10 10 10 6 0 10 5 10
10 0 12 43 80 48 75 2 -1 -9 -26 -25 -54z m-813 29 c-6 -11 -13 -20 -16 -20
-2 0 0 9 6 20 6 11 13 20 16 20 2 0 0 -9 -6 -20z m43 0 c-3 -11 -7 -20 -9 -20
-2 0 -4 9 -4 20 0 11 4 20 9 20 5 0 7 -9 4 -20z m339 -2 c-7 -7 -12 -8 -12 -2
0 14 12 26 19 19 2 -3 -1 -11 -7 -17z m24 -14 c-19 -19 -21 -11 -4 16 7 11 14
16 16 10 2 -5 -4 -17 -12 -26z m181 4 c-3 -7 -5 -2 -5 12 0 14 2 19 5 13 2 -7
2 -19 0 -25z m-1037 8 c0 -8 -7 -16 -15 -20 -13 -4 -14 -2 -5 14 13 23 20 26
20 6z m875 -39 c-28 -49 -69 -92 -47 -50 7 12 17 25 22 28 6 4 8 11 5 16 -4 5
-2 9 3 9 5 0 14 12 21 26 6 15 14 24 17 21 3 -3 -6 -26 -21 -50z m-101 4 c-10
-17 -22 -31 -26 -31 -5 0 2 15 14 34 28 42 37 39 12 -3z m177 12 c-12 -20 -14
-14 -5 12 4 9 9 14 11 11 3 -2 0 -13 -6 -23z m41 5 c-7 -7 -12 -8 -12 -2 0 14
12 26 19 19 2 -3 -1 -11 -7 -17z m68 2 c-6 -11 -13 -20 -16 -20 -2 0 0 9 6 20
6 11 13 20 16 20 2 0 0 -9 -6 -20z m98 -11 c-16 -28 -38 -53 -38 -43 0 3 10
22 21 41 23 37 38 39 17 2z m515 16 c-3 -9 -8 -14 -10 -11 -3 3 -2 9 2 15 9
16 15 13 8 -4z m-1661 -23 c-7 -2 -12 -11 -13 -20 0 -10 -3 -12 -5 -5 -3 7 0
22 7 35 9 17 14 19 17 8 3 -7 0 -16 -6 -18z m36 3 c-6 -14 -13 -23 -16 -21 -7
7 9 46 18 46 5 0 4 -11 -2 -25z m558 -2 c-10 -10 -19 5 -10 18 6 11 8 11 12 0
2 -7 1 -15 -2 -18z m-806 2 c0 -8 -4 -15 -10 -15 -5 0 -7 7 -4 15 4 8 8 15 10
15 2 0 4 -7 4 -15z m303 -21 c-10 -19 -19 -31 -21 -25 -3 9 26 61 34 61 2 0
-4 -16 -13 -36z m148 9 c-8 -15 -10 -15 -11 -2 0 17 10 32 18 25 2 -3 -1 -13
-7 -23z m209 7 c-6 -11 -13 -20 -16 -20 -2 0 0 9 6 20 6 11 13 20 16 20 2 0 0
-9 -6 -20z m820 -19 c-25 -36 -34 -40 -17 -8 21 38 29 49 34 43 3 -3 -5 -19
-17 -35z m83 24 c-3 -9 -8 -14 -10 -11 -3 3 -2 9 2 15 9 16 15 13 8 -4z
m-1283 -5 c0 -5 -2 -10 -4 -10 -3 0 -8 5 -11 10 -3 6 -1 10 4 10 6 0 11 -4 11
-10z m650 -5 c0 -8 -4 -15 -10 -15 -5 0 -7 7 -4 15 4 8 8 15 10 15 2 0 4 -7 4
-15z m-1093 -17 c-3 -8 -6 -5 -6 6 -1 11 2 17 5 13 3 -3 4 -12 1 -19z m1533
-9 c-12 -16 -24 -28 -27 -25 -6 6 29 55 40 56 5 0 -1 -14 -13 -31z m-1200 17
c0 -3 -4 -8 -10 -11 -5 -3 -10 -1 -10 4 0 6 5 11 10 11 6 0 10 -2 10 -4z m150
-35 c-12 -17 -23 -31 -25 -31 -7 0 8 34 24 52 24 28 25 12 1 -21z m524 9 c-10
-16 -20 -28 -22 -26 -4 5 28 56 35 56 2 0 -4 -13 -13 -30z m256 20 c0 -5 -5
-10 -11 -10 -5 0 -7 5 -4 10 3 6 8 10 11 10 2 0 4 -4 4 -10z m140 6 c0 -3 -4
-8 -10 -11 -5 -3 -10 -1 -10 4 0 6 5 11 10 11 6 0 10 -2 10 -4z m-1034 -48
c-19 -27 -21 -19 -4 18 7 14 14 21 16 15 2 -6 -4 -21 -12 -33z m44 6 c-18 -21
-24 -10 -8 15 7 12 14 17 16 11 2 -6 -2 -17 -8 -26z m570 27 c0 -6 -4 -13 -10
-16 -5 -3 -10 1 -10 9 0 9 5 16 10 16 6 0 10 -4 10 -9z m158 -22 c-7 -13 -19
-29 -25 -37 -11 -11 -13 -11 -13 2 0 9 4 16 8 16 5 0 14 12 21 26 6 15 14 24
17 21 3 -3 -1 -15 -8 -28z m222 21 c0 -5 -5 -10 -11 -10 -5 0 -7 5 -4 10 3 6
8 10 11 10 2 0 4 -4 4 -10z m368 -10 c-7 -10 -14 -17 -17 -15 -4 4 18 35 25
35 2 0 -1 -9 -8 -20z m-1041 -12 c-3 -8 -6 -5 -6 6 -1 11 2 17 5 13 3 -3 4
-12 1 -19z m13 -34 c-18 -27 -29 -38 -25 -25 4 14 16 34 26 45 11 11 19 24 19
30 0 5 2 7 6 4 3 -3 -9 -28 -26 -54z m331 33 c-10 -9 -11 -8 -5 6 3 10 9 15
12 12 3 -3 0 -11 -7 -18z m277 3 c-7 -10 -14 -17 -17 -15 -4 4 18 35 25 35 2
0 -1 -9 -8 -20z m-1017 -13 c-10 -9 -11 -8 -5 6 3 10 9 15 12 12 3 -3 0 -11
-7 -18z m206 -10 c-6 -15 -15 -27 -19 -27 -12 0 -10 8 8 36 21 31 28 26 11 -9z
m256 16 c-4 -10 -15 -29 -26 -43 -11 -14 -18 -20 -15 -15 2 6 10 25 17 43 13
32 36 47 24 15z m478 -10 c-12 -20 -14 -14 -5 12 4 9 9 14 11 11 3 -2 0 -13
-6 -23z m165 -5 c-9 -12 -16 -19 -16 -15 0 11 24 47 28 42 2 -2 -3 -14 -12
-27z m174 4 c0 -15 -2 -15 -10 -2 -13 20 -13 33 0 25 6 -3 10 -14 10 -23z
m-1499 -5 c-10 -9 -11 -8 -5 6 3 10 9 15 12 12 3 -3 0 -11 -7 -18z m256 1 c-3
-8 -6 -5 -6 6 -1 11 2 17 5 13 3 -3 4 -12 1 -19z m450 0 c-3 -8 -6 -5 -6 6 -1
11 2 17 5 13 3 -3 4 -12 1 -19z m76 7 c-3 -9 -8 -14 -10 -11 -3 3 -2 9 2 15 9
16 15 13 8 -4z m417 7 c0 -5 -7 -17 -16 -28 -8 -10 -14 -14 -11 -9 2 6 7 18
10 28 7 17 17 23 17 9z m52 -24 c-8 -8 -9 -4 -5 13 4 13 8 18 11 10 2 -7 -1
-18 -6 -23z m128 28 c0 -3 -4 -8 -10 -11 -5 -3 -10 -1 -10 4 0 6 5 11 10 11 6
0 10 -2 10 -4z m195 -16 c-4 -11 -2 -20 4 -20 15 0 14 -12 -2 -35 -12 -16 -14
-14 -11 21 3 52 3 54 10 54 3 0 2 -9 -1 -20z m96 -3 c-10 -9 -11 -8 -5 6 3 10
9 15 12 12 3 -3 0 -11 -7 -18z m-1789 -19 c-8 -8 -9 -4 -5 13 4 13 8 18 11 10
2 -7 -1 -18 -6 -23z m58 28 c0 -3 -4 -8 -10 -11 -5 -3 -10 -1 -10 4 0 6 5 11
10 11 6 0 10 -2 10 -4z m237 -18 c-3 -8 -6 -5 -6 6 -1 11 2 17 5 13 3 -3 4
-12 1 -19z m323 8 c0 -8 -4 -18 -10 -21 -5 -3 -10 3 -10 14 0 12 5 21 10 21 6
0 10 -6 10 -14z m590 7 c0 -5 -10 -19 -21 -33 l-21 -25 18 33 c18 32 24 38 24
25z m375 -3 c-4 -6 -2 -17 5 -25 12 -15 4 -39 -31 -84 -25 -32 -24 -16 2 26
13 21 19 42 15 57 -3 13 -3 26 1 30 10 10 15 7 8 -4z m-1005 -9 c0 -6 -4 -13
-10 -16 -5 -3 -10 1 -10 9 0 9 5 16 10 16 6 0 10 -4 10 -9z m50 -30 c-20 -30
-40 -44 -23 -18 27 42 38 56 41 52 2 -2 -6 -18 -18 -34z m421 16 c-10 -9 -11
-8 -5 6 3 10 9 15 12 12 3 -3 0 -11 -7 -18z m865 -9 c-18 -26 -22 -17 -5 14 6
11 13 17 16 15 3 -3 -2 -16 -11 -29z m-178 2 c-7 -10 -14 -17 -17 -15 -4 4 18
35 25 35 2 0 -1 -9 -8 -20z m-1565 -11 c-4 -13 -9 -17 -15 -11 -11 11 -3 32
12 32 4 0 6 -9 3 -21z m482 -17 c-15 -16 -16 -15 -4 12 7 15 15 23 17 16 3 -7
-3 -19 -13 -28z m42 16 c-3 -8 -6 -5 -6 6 -1 11 2 17 5 13 3 -3 4 -12 1 -19z
m183 10 c-1 -7 -12 -26 -25 -43 -21 -25 -23 -26 -18 -7 3 12 9 22 13 22 5 0
12 9 15 20 7 22 15 27 15 8z m103 -5 c-7 -3 -13 -12 -14 -21 0 -11 -2 -13 -6
-4 -6 15 17 46 26 36 3 -4 0 -9 -6 -11z m-58 -3 c8 -13 -4 -50 -16 -50 -6 0
-6 7 1 19 14 28 12 36 -5 21 -13 -11 -14 -10 -9 4 7 18 20 21 29 6z m115 -62
c-23 -34 -40 -58 -38 -53 6 19 72 124 76 120 2 -2 -15 -32 -38 -67z m200 47
c0 -8 -4 -16 -9 -19 -5 -3 -8 5 -8 19 0 14 3 22 8 19 5 -3 9 -11 9 -19z m540
21 c0 -3 -4 -8 -10 -11 -5 -3 -10 -1 -10 4 0 6 5 11 10 11 6 0 10 -2 10 -4z
m30 -3 c0 -5 -5 -15 -10 -23 -8 -12 -10 -11 -10 8 0 12 5 22 10 22 6 0 10 -3
10 -7z m-1720 -12 c0 -5 -9 -19 -21 -32 l-20 -24 17 33 c19 33 24 38 24 23z
m191 -21 c5 0 9 5 9 12 0 6 3 9 6 5 3 -3 -6 -23 -21 -44 -25 -34 -27 -32 -9
12 3 8 1 15 -5 15 -6 0 -7 7 -3 18 6 16 7 16 10 0 2 -10 8 -18 13 -18z m239
23 c0 -5 -10 -19 -21 -33 l-20 -25 16 33 c15 30 25 41 25 25z m590 -8 c-7 -9
-15 -13 -17 -11 -7 7 7 26 19 26 6 0 6 -6 -2 -15z m450 5 c0 -5 -5 -10 -11
-10 -5 0 -7 5 -4 10 3 6 8 10 11 10 2 0 4 -4 4 -10z m303 -5 c-3 -9 -8 -14
-10 -11 -3 3 -2 9 2 15 9 16 15 13 8 -4z m-1752 -18 c-10 -9 -11 -8 -5 6 3 10
9 15 12 12 3 -3 0 -11 -7 -18z m669 -9 c-13 -13 -19 -16 -15 -8 14 25 28 41
32 36 3 -3 -5 -15 -17 -28z m199 -15 c-23 -29 -23 -27 1 21 8 15 16 23 18 17
2 -6 -6 -23 -19 -38z m-232 12 c-4 -8 -11 -15 -17 -15 -7 0 -7 6 0 21 13 23
26 19 17 -6z m448 15 c3 -5 1 -10 -4 -10 -6 0 -11 5 -11 10 0 6 2 10 4 10 3 0
8 -4 11 -10z m612 -31 c-13 -30 -15 -31 -14 -9 1 14 6 30 12 36 16 19 17 9 2
-27z m180 9 c-3 -7 -5 -2 -5 12 0 14 2 19 5 13 2 -7 2 -19 0 -25z m-1947 13
c0 -6 -4 -13 -10 -16 -5 -3 -10 1 -10 9 0 9 5 16 10 16 6 0 10 -4 10 -9z m844
-6 c-4 -8 -8 -15 -10 -15 -2 0 -4 7 -4 15 0 8 4 15 10 15 5 0 7 -7 4 -15z
m367 -18 c-13 -12 -20 -15 -16 -7 14 26 28 41 33 35 3 -3 -5 -16 -17 -28z
m399 29 c0 -2 -7 -9 -15 -16 -13 -11 -14 -10 -9 4 5 14 24 23 24 12z m121 -23
c-12 -20 -14 -14 -5 12 4 9 9 14 11 11 3 -2 0 -13 -6 -23z m107 1 c-7 -15 -14
-21 -16 -15 -2 7 2 18 8 26 18 22 21 18 8 -11z m-1628 6 c0 -5 -4 -10 -10 -10
-5 0 -10 5 -10 10 0 6 5 10 10 10 6 0 10 -4 10 -10z m302 -12 c-7 -7 -12 -8
-12 -2 0 14 12 26 19 19 2 -3 -1 -11 -7 -17z m88 12 c0 -5 -4 -10 -10 -10 -5
0 -10 5 -10 10 0 6 5 10 10 10 6 0 10 -4 10 -10z m706 -18 c-18 -16 -18 -16
-6 6 6 13 14 21 18 18 3 -4 -2 -14 -12 -24z m316 -4 c-8 -8 -9 -4 -5 13 4 13
8 18 11 10 2 -7 -1 -18 -6 -23z m-1249 7 c-3 -9 -8 -14 -10 -11 -3 3 -2 9 2
15 9 16 15 13 8 -4z m98 -8 c-10 -9 -11 -8 -5 6 3 10 9 15 12 12 3 -3 0 -11
-7 -18z m89 19 c0 -3 -4 -8 -10 -11 -5 -3 -10 -1 -10 4 0 6 5 11 10 11 6 0 10
-2 10 -4z m776 -28 c-18 -26 -22 -17 -5 14 6 11 13 17 16 15 3 -3 -2 -16 -11
-29z m41 0 c-3 -7 -5 -2 -5 12 0 14 2 19 5 13 2 -7 2 -19 0 -25z m415 10 c-7
-7 -12 -8 -12 -2 0 14 12 26 19 19 2 -3 -1 -11 -7 -17z m72 -2 c-3 -9 -10 -16
-15 -16 -5 0 -4 9 3 20 14 22 21 20 12 -4z m-1620 -23 c-31 -46 -34 -49 -34
-35 0 10 48 72 56 72 2 0 -8 -17 -22 -37z m1199 22 c-3 -9 -8 -14 -10 -11 -3
3 -2 9 2 15 9 16 15 13 8 -4z m117 11 c0 -3 -4 -8 -10 -11 -5 -3 -10 -1 -10 4
0 6 5 11 10 11 6 0 10 -2 10 -4z m-770 -16 c0 -5 -4 -10 -10 -10 -5 0 -10 5
-10 10 0 6 5 10 10 10 6 0 10 -4 10 -10z m40 6 c0 -3 -4 -8 -10 -11 -5 -3 -10
-1 -10 4 0 6 5 11 10 11 6 0 10 -2 10 -4z m281 -37 c-26 -24 -27 -16 -3 16 9
13 19 19 21 13 2 -5 -6 -18 -18 -29z m897 21 c-7 -10 -14 -17 -17 -15 -4 4 18
35 25 35 2 0 -1 -9 -8 -20z m-1383 -20 c-9 -16 -18 -30 -21 -30 -2 0 2 14 11
30 9 17 18 30 21 30 2 0 -2 -13 -11 -30z m766 -4 c-6 -14 -8 -33 -5 -41 4 -8
2 -15 -3 -15 -14 0 -15 59 -1 74 18 19 20 14 9 -18z m-1125 -4 c-18 -16 -18
-16 -6 6 6 13 14 21 18 18 3 -4 -2 -14 -12 -24z m264 24 c0 -3 -4 -8 -10 -11
-5 -3 -10 -1 -10 4 0 6 5 11 10 11 6 0 10 -2 10 -4z m161 -19 c-10 -9 -11 -8
-5 6 3 10 9 15 12 12 3 -3 0 -11 -7 -18z m153 8 c-4 -8 -8 -15 -10 -15 -2 0
-4 7 -4 15 0 8 4 15 10 15 5 0 7 -7 4 -15z m611 -15 c-4 -12 -9 -19 -12 -17
-3 3 -2 15 2 27 4 12 9 19 12 17 3 -3 2 -15 -2 -27z m28 -11 c-8 -17 -17 -29
-19 -26 -7 6 20 66 27 61 4 -2 1 -18 -8 -35z m-689 7 c-3 -9 -10 -16 -15 -16
-5 0 -4 9 3 20 14 22 21 20 12 -4z m482 -3 c-10 -10 -19 5 -10 18 6 11 8 11
12 0 2 -7 1 -15 -2 -18z m144 6 c-7 -11 -14 -18 -17 -15 -3 3 0 12 7 21 18 21
23 19 10 -6z m97 -7 c-10 -10 -14 -22 -10 -25 3 -4 1 -7 -5 -7 -7 0 -12 2 -12
5 0 12 33 55 38 50 3 -3 -2 -13 -11 -23z m-210 -4 c-3 -8 -6 -5 -6 6 -1 11 2
17 5 13 3 -3 4 -12 1 -19z m-284 -8 c-3 -12 -8 -19 -11 -16 -5 6 5 36 12 36 2
0 2 -9 -1 -20z m110 5 c-3 -9 -8 -14 -10 -11 -3 3 -2 9 2 15 9 16 15 13 8 -4z
m53 -17 c-9 -12 -16 -19 -16 -15 0 11 24 47 28 42 2 -2 -3 -14 -12 -27z m-206
2 c-6 -11 -13 -20 -16 -20 -2 0 0 9 6 20 6 11 13 20 16 20 2 0 0 -9 -6 -20z
m1010 16 c0 -3 -4 -8 -10 -11 -5 -3 -10 -1 -10 4 0 6 5 11 10 11 6 0 10 -2 10
-4z m70 -6 c0 -5 -5 -10 -11 -10 -5 0 -7 5 -4 10 3 6 8 10 11 10 2 0 4 -4 4
-10z m-1822 -20 c-7 -10 -14 -17 -17 -15 -4 4 18 35 25 35 2 0 -1 -9 -8 -20z
m72 -5 c0 -7 -7 -15 -14 -18 -10 -4 -13 -1 -9 9 3 7 0 14 -7 14 -6 0 -9 4 -5
10 8 12 35 1 35 -15z m775 15 c3 -5 1 -10 -4 -10 -6 0 -11 5 -11 10 0 6 2 10
4 10 3 0 8 -4 11 -10z m552 -12 c-3 -8 -6 -5 -6 6 -1 11 2 17 5 13 3 -3 4 -12
1 -19z m-1467 8 c0 -3 -4 -8 -10 -11 -5 -3 -10 -1 -10 4 0 6 5 11 10 11 6 0
10 -2 10 -4z m521 -29 c-6 -6 -11 -18 -11 -26 1 -12 6 -10 20 8 23 27 25 23 7
-12 -11 -21 -15 -23 -30 -12 -17 12 -17 14 0 44 10 17 20 26 22 20 2 -6 -2
-16 -8 -22z m109 14 c-5 -11 -15 -23 -21 -27 -6 -3 -3 5 6 20 20 30 30 35 15
7z m630 9 c0 -5 -5 -10 -11 -10 -5 0 -7 5 -4 10 3 6 8 10 11 10 2 0 4 -4 4
-10z m303 -5 c-3 -9 -8 -14 -10 -11 -3 3 -2 9 2 15 9 16 15 13 8 -4z m-1116
-17 c-3 -8 -6 -5 -6 6 -1 11 2 17 5 13 3 -3 4 -12 1 -19z m153 12 c0 -5 -5
-10 -11 -10 -5 0 -7 5 -4 10 3 6 8 10 11 10 2 0 4 -4 4 -10z m140 6 c0 -2 -8
-10 -17 -17 -16 -13 -17 -12 -4 4 13 16 21 21 21 13z m1181 -19 c-10 -9 -11
-8 -5 6 3 10 9 15 12 12 3 -3 0 -11 -7 -18z m-1098 -7 c-3 -11 -9 -20 -15 -20
-5 0 -4 9 2 20 6 11 12 20 14 20 2 0 2 -9 -1 -20z m883 -12 c-18 -26 -22 -17
-5 14 6 11 13 17 16 15 3 -3 -2 -16 -11 -29z m-1902 -2 c-3 -9 -10 -16 -15
-16 -5 0 -4 9 3 20 14 22 21 20 12 -4z m976 -12 c-18 -21 -24 -10 -8 15 7 12
14 17 16 11 2 -6 -2 -17 -8 -26z m180 27 c0 -6 -4 -13 -10 -16 -5 -3 -10 1
-10 9 0 9 5 16 10 16 6 0 10 -4 10 -9z m441 -14 c-10 -9 -11 -8 -5 6 3 10 9
15 12 12 3 -3 0 -11 -7 -18z m39 2 c-7 -11 -14 -18 -17 -15 -3 3 0 12 7 21 18
21 23 19 10 -6z m400 2 c-5 -11 -15 -23 -21 -27 -6 -3 -3 5 6 20 20 30 30 35
15 7z m-1004 -27 c-19 -19 -21 -11 -4 16 7 11 14 16 16 10 2 -5 -4 -17 -12
-26z m84 26 c0 -5 -5 -10 -11 -10 -5 0 -7 5 -4 10 3 6 8 10 11 10 2 0 4 -4 4
-10z m133 -10 c-3 -11 -9 -20 -15 -20 -5 0 -4 9 2 20 6 11 12 20 14 20 2 0 2
-9 -1 -20z m-1093 0 c0 -5 -5 -10 -11 -10 -5 0 -7 5 -4 10 3 6 8 10 11 10 2 0
4 -4 4 -10z m40 2 c0 -5 -7 -17 -16 -28 -14 -17 -15 -17 -10 -1 3 10 6 23 6
28 0 5 5 9 10 9 6 0 10 -4 10 -8z m40 4 c0 -3 -4 -8 -10 -11 -5 -3 -10 -1 -10
4 0 6 5 11 10 11 6 0 10 -2 10 -4z m126 -33 c-8 -15 -15 -22 -16 -15 0 14 22
53 28 47 2 -2 -3 -16 -12 -32z m514 33 c0 -3 -4 -8 -10 -11 -5 -3 -10 -1 -10
4 0 6 5 11 10 11 6 0 10 -2 10 -4z m335 -5 c3 -5 1 -12 -5 -16 -5 -3 -10 1
-10 9 0 18 6 21 15 7z m746 -14 c-10 -9 -11 -8 -5 6 3 10 9 15 12 12 3 -3 0
-11 -7 -18z m-1563 -12 c-6 -14 -13 -23 -15 -21 -5 5 15 46 22 46 3 0 -1 -11
-7 -25z m1062 15 c0 -5 -5 -10 -11 -10 -5 0 -7 5 -4 10 3 6 8 10 11 10 2 0 4
-4 4 -10z m310 6 c0 -3 -4 -8 -10 -11 -5 -3 -10 -1 -10 4 0 6 5 11 10 11 6 0
10 -2 10 -4z m83 -11 c-3 -9 -8 -14 -10 -11 -3 3 -2 9 2 15 9 16 15 13 8 -4z
m-516 -17 c-3 -8 -6 -5 -6 6 -1 11 2 17 5 13 3 -3 4 -12 1 -19z m77 7 c-4 -8
-11 -15 -16 -15 -6 0 -5 6 2 15 7 8 14 15 16 15 2 0 1 -7 -2 -15z m235 -11
c-15 -18 -22 -13 -13 10 3 9 10 13 16 10 5 -3 4 -12 -3 -20z m-796 1 c-3 -9
-8 -14 -10 -11 -3 3 -2 9 2 15 9 16 15 13 8 -4z m457 5 c0 -5 -4 -10 -10 -10
-5 0 -10 5 -10 10 0 6 5 10 10 10 6 0 10 -4 10 -10z m673 -10 c-3 -12 -8 -19
-11 -16 -5 6 5 36 12 36 2 0 2 -9 -1 -20z"/>
<path d="M696 2305 c-9 -24 -8 -25 13 -25 10 0 24 7 31 15 8 9 8 15 2 15 -6 0
-17 3 -25 6 -8 3 -17 -2 -21 -11z"/>
<path d="M762 2299 c-13 -20 -13 -20 120 -17 112 2 133 6 136 19 3 18 -26 22
-45 6 -9 -6 -13 -6 -13 2 0 11 -39 9 -60 -4 -5 -3 -10 -2 -10 4 0 12 -41 11
-57 -2 -9 -6 -13 -6 -13 2 0 8 -5 9 -19 1 -13 -6 -21 -6 -23 0 -2 6 -9 1 -16
-11z"/>
<path d="M1045 2302 c-9 -24 -5 -26 10 -6 13 16 14 16 9 2 -7 -21 6 -23 25 -5
11 10 12 9 6 -1 -6 -11 18 -13 121 -10 113 3 129 5 132 20 3 15 -3 17 -35 15
-21 -1 -44 -6 -52 -11 -10 -6 -12 -5 -7 3 6 8 -19 11 -98 9 -77 -2 -107 -7
-111 -16z"/>
<path d="M1424 2309 c-24 -8 -41 -29 -25 -29 5 0 12 6 15 13 5 10 7 10 12 0 4
-9 37 -13 112 -13 93 0 109 2 119 18 10 17 6 18 -53 19 -35 1 -64 -3 -64 -8 0
-6 -6 -7 -12 -3 -18 11 -79 13 -104 3z"/>
<path d="M1720 2307 c0 -4 -8 -6 -19 -2 -10 3 -24 -1 -31 -10 -10 -12 -10 -15
4 -15 9 0 16 6 16 13 0 8 4 7 10 -3 9 -13 11 -13 20 0 7 10 13 11 18 5 11 -16
112 -17 130 -2 13 9 14 9 8 0 -4 -7 -3 -13 3 -13 5 0 12 6 15 13 5 9 7 9 12 0
4 -9 11 -10 24 -3 13 7 20 6 22 -2 3 -7 7 -5 11 6 4 10 3 15 -3 11 -6 -3 -10
-1 -10 6 0 8 -4 8 -16 -2 -9 -8 -18 -9 -22 -3 -8 11 -43 11 -62 -1 -8 -5 -11
-4 -7 1 3 6 -20 10 -59 10 -35 0 -64 -4 -64 -9z"/>
<path d="M1990 2300 c-6 -11 -8 -20 -6 -20 3 0 10 9 16 20 6 11 8 20 6 20 -3
0 -10 -9 -16 -20z"/>
<path d="M2060 2301 c-8 -17 -7 -20 10 -18 21 1 27 21 11 32 -6 3 -15 -3 -21
-14z"/>
<path d="M2107 2313 c-10 -10 -8 -25 2 -19 5 4 11 1 13 -5 2 -7 10 -4 18 7 11
13 12 16 1 10 -8 -5 -16 -4 -20 3 -4 6 -10 8 -14 4z"/>
<path d="M2166 2304 c-10 -25 1 -29 14 -5 6 12 7 21 1 21 -5 0 -12 -7 -15 -16z"/>
<path d="M2208 2309 c-27 -15 -22 -26 12 -27 24 0 30 3 30 21 0 20 0 20 -16 1
-13 -16 -15 -16 -10 -1 6 20 7 20 -16 6z"/>
<path d="M2273 2304 c-3 -9 0 -20 7 -24 10 -6 13 -40 12 -130 0 -109 1 -120
15 -103 8 10 12 13 9 6 -4 -6 -3 -14 2 -17 4 -2 8 40 8 95 1 86 -1 97 -14 86
-12 -9 -11 -4 2 22 14 26 16 39 7 57 -12 27 -39 32 -48 8z m39 -206 c-7 -7
-12 -8 -12 -2 0 6 3 14 7 17 3 4 9 5 12 2 2 -3 -1 -11 -7 -17z"/>
<path d="M1 2294 c0 -11 3 -14 6 -6 3 7 2 16 -1 19 -3 4 -6 -2 -5 -13z"/>
<path d="M446 2301 c-4 -7 -5 -15 -2 -18 9 -9 19 4 14 18 -4 11 -6 11 -12 0z"/>
<path d="M1365 2301 c-3 -5 -1 -12 4 -15 5 -3 11 1 15 9 6 16 -9 21 -19 6z"/>
<path d="M2 2240 c0 -14 2 -19 5 -12 2 6 2 18 0 25 -3 6 -5 1 -5 -13z"/>
<path d="M31 2204 c0 -34 3 -53 9 -49 14 9 13 -8 -2 -23 -6 -6 -8 -15 -4 -19
15 -15 26 24 25 85 -3 81 -26 87 -28 6z"/>
<path d="M2 2180 c0 -14 2 -19 5 -12 2 6 2 18 0 25 -3 6 -5 1 -5 -13z"/>
<path d="M1 2124 c0 -11 3 -14 6 -6 3 7 2 16 -1 19 -3 4 -6 -2 -5 -13z"/>
<path d="M43 2092 c-11 -7 -16 -122 -11 -245 1 -27 1 -27 16 -6 12 18 13 23 1
30 -8 5 -9 9 -3 9 11 0 13 22 13 135 -1 43 -2 85 -4 85 0 0 -5 -4 -12 -8z"/>
<path d="M3 1955 c0 -44 2 -61 4 -37 2 23 2 59 0 80 -2 20 -4 1 -4 -43z"/>
<path d="M2297 2012 c-3 -4 -5 -24 -4 -44 1 -29 4 -35 14 -26 10 8 9 1 -2 -26
-18 -43 -21 -281 -3 -270 7 4 7 0 0 -12 -6 -11 -10 -95 -10 -189 0 -111 3
-162 9 -147 5 13 12 21 16 19 5 -3 9 16 10 42 2 32 0 42 -7 31 -5 -8 -10 -10
-10 -4 0 6 3 14 8 18 12 13 10 266 -2 259 -6 -3 -5 0 2 8 14 16 16 43 2 34 -5
-3 -10 -1 -10 4 0 6 3 11 8 11 4 0 8 39 9 88 2 78 1 85 -12 68 -11 -15 -15
-16 -15 -5 0 8 5 20 12 27 14 14 21 102 8 102 -4 0 -11 -6 -14 -12 -3 -7 -3
-3 0 10 5 21 0 30 -9 14z m15 -424 c-7 -7 -12 -8 -12 -2 0 6 3 14 7 17 3 4 9
5 12 2 2 -3 -1 -11 -7 -17z"/>
<path d="M37 1803 c-4 -7 -8 -63 -8 -125 -2 -144 -1 -150 11 -143 6 3 7 -1 4
-9 -3 -9 -10 -14 -14 -11 -5 3 -6 -4 -3 -15 3 -11 10 -17 16 -13 6 4 8 0 4
-10 -22 -54 -22 -53 -4 -39 12 11 16 33 16 105 0 51 0 119 0 152 1 68 -11 125
-22 108z"/>
<path d="M3 1720 c0 -47 2 -66 4 -42 2 23 2 61 0 85 -2 23 -4 4 -4 -43z"/>
<path d="M3 1580 c0 -30 2 -43 4 -27 2 15 2 39 0 55 -2 15 -4 2 -4 -28z"/>
<path d="M42 1403 c-17 -31 -15 -48 4 -29 8 9 14 24 12 34 -3 15 -5 14 -16 -5z"/>
<path d="M39 1357 c-13 -10 -15 -41 -13 -202 1 -222 1 -218 14 -210 6 3 7 -1
4 -9 -3 -9 -10 -14 -14 -11 -5 3 -6 -4 -3 -15 3 -11 10 -17 16 -13 7 4 8 0 3
-13 -5 -10 -11 -28 -13 -39 -5 -20 -5 -20 10 0 12 17 15 64 15 273 0 138 -1
252 -1 252 -1 0 -9 -6 -18 -13z"/>
<path d="M3 1235 c0 -33 2 -45 4 -27 2 18 2 45 0 60 -2 15 -4 0 -4 -33z"/>
<path d="M2292 1226 c2 -35 5 -43 15 -34 10 8 9 1 -2 -25 -18 -44 -21 -247 -4
-264 8 -8 8 -13 0 -17 -16 -10 -14 -179 1 -194 10 -10 10 -14 0 -21 -14 -8
-14 -191 0 -191 4 0 8 -8 8 -17 0 -9 3 -13 8 -9 10 11 12 285 1 292 -5 3 -9
10 -9 15 0 6 4 8 8 5 4 -2 8 38 9 90 1 51 -3 96 -8 99 -5 4 -9 11 -9 16 0 6 3
8 8 6 4 -3 8 34 9 81 2 79 1 85 -12 68 -11 -15 -15 -16 -15 -5 0 8 5 20 12 27
14 14 21 102 8 102 -4 0 -10 -3 -13 -7 -2 -5 -2 -3 -1 4 2 7 -1 15 -6 18 -6 3
-9 -13 -8 -39z"/>
<path d="M3 1110 c0 -36 2 -50 4 -32 2 17 2 47 0 65 -2 17 -4 3 -4 -33z"/>
<path d="M3 990 c0 -30 2 -43 4 -27 2 15 2 39 0 55 -2 15 -4 2 -4 -28z"/>
<path d="M43 819 c-17 -21 -26 -90 -15 -119 l9 -24 12 22 c7 12 11 48 9 79 -2
46 -5 53 -15 42z"/>
<path d="M27 653 c3 -7 9 -13 13 -13 4 0 10 6 13 13 3 7 -3 13 -13 13 -10 0
-16 -6 -13 -13z"/>
<path d="M40 605 c0 -8 -5 -15 -10 -15 -7 0 -9 -61 -6 -177 5 -205 3 -186 16
-178 6 3 7 -1 4 -9 -3 -9 -10 -14 -14 -11 -5 3 -6 -4 -3 -15 3 -11 10 -17 16
-13 7 4 8 0 3 -13 -5 -10 -11 -28 -13 -39 l-5 -20 15 20 c11 16 15 60 15 220
1 129 -3 204 -10 212 -7 9 -7 13 1 13 6 0 11 9 11 20 0 11 -4 20 -10 20 -5 0
-10 -7 -10 -15z"/>
<path d="M3 400 c0 -36 2 -50 4 -32 2 17 2 47 0 65 -2 17 -4 3 -4 -33z"/>
<path d="M2255 440 c-3 -5 -1 -10 4 -10 6 0 11 5 11 10 0 6 -2 10 -4 10 -3 0
-8 -4 -11 -10z"/>
<path d="M2306 405 c-20 -30 -21 -41 -2 -26 12 10 29 51 21 51 -1 0 -10 -11
-19 -25z"/>
<path d="M2311 353 c-10 -26 -10 -27 4 -9 8 11 15 23 15 28 0 15 -7 8 -19 -19z"/>
<path d="M3 280 c0 -30 2 -43 4 -27 2 15 2 39 0 55 -2 15 -4 2 -4 -28z"/>
<path d="M2302 283 c-5 -10 -9 -61 -10 -114 0 -87 2 -96 18 -92 13 3 17 15 17
44 0 24 -4 36 -10 32 -7 -4 -8 0 -2 13 11 27 12 94 1 87 -5 -3 -7 6 -4 21 6
30 2 33 -10 9z m18 -77 c0 -3 -4 -8 -10 -11 -5 -3 -10 -1 -10 4 0 6 5 11 10
11 6 0 10 -2 10 -4z"/>
<path d="M42 108 c-16 -16 -15 -28 3 -28 8 0 15 9 15 20 0 23 -2 24 -18 8z"/>
<path d="M30 39 c0 -18 4 -20 30 -14 21 5 30 3 30 -6 0 -8 7 -6 20 6 23 21 19
35 -5 15 -12 -10 -15 -10 -15 4 0 14 -4 15 -20 6 -14 -7 -20 -7 -20 0 0 5 -4
10 -10 10 -5 0 -10 -9 -10 -21z"/>
<path d="M140 41 c-6 -12 -7 -21 -1 -21 10 0 24 30 17 37 -2 3 -9 -5 -16 -16z"/>
<path d="M245 51 c-3 -6 -12 -8 -20 -4 -8 3 -15 0 -15 -5 0 -14 50 -22 125
-19 46 1 60 6 60 17 0 12 -16 16 -72 18 -39 1 -74 -2 -78 -7z"/>
<path d="M425 52 c-6 -4 -11 -14 -13 -22 -3 -12 0 -12 14 2 18 18 17 33 -1 20z"/>
<path d="M473 38 c-1 -10 5 -18 13 -18 8 0 14 6 14 13 0 9 2 9 8 0 4 -7 34
-11 72 -12 36 0 66 -5 68 -10 4 -13 30 10 34 30 2 11 -19 14 -103 14 -93 0
-105 -2 -106 -17z"/>
<path d="M696 45 c-9 -24 -8 -25 13 -25 10 0 24 7 31 15 8 9 8 15 2 15 -6 0
-17 3 -25 6 -8 3 -17 -2 -21 -11z"/>
<path d="M762 39 c-13 -20 -13 -20 120 -17 112 2 133 6 136 19 3 18 -26 22
-45 6 -9 -6 -13 -6 -13 2 0 11 -39 9 -60 -4 -5 -3 -10 -2 -10 4 0 12 -41 11
-57 -2 -9 -6 -13 -6 -13 2 0 8 -5 9 -19 1 -13 -6 -21 -6 -23 0 -2 6 -9 1 -16
-11z"/>
<path d="M1045 42 c-9 -24 -5 -26 10 -6 13 16 14 16 9 2 -7 -21 6 -23 25 -5
11 10 12 9 6 -1 -6 -11 18 -13 121 -10 113 3 129 5 132 20 3 15 -3 17 -35 15
-21 -1 -44 -6 -52 -11 -10 -6 -12 -5 -7 3 6 8 -19 11 -98 9 -77 -2 -107 -7
-111 -16z"/>
<path d="M1424 49 c-24 -8 -41 -29 -25 -29 5 0 12 6 15 13 5 10 7 10 12 0 4
-9 37 -13 112 -13 93 0 109 2 119 18 10 17 6 18 -53 19 -35 1 -64 -3 -64 -8 0
-6 -6 -7 -12 -3 -18 11 -79 13 -104 3z"/>
<path d="M1720 47 c0 -4 -8 -6 -19 -2 -10 3 -24 -1 -31 -10 -10 -12 -10 -15 4
-15 9 0 16 6 16 13 0 8 4 7 10 -3 9 -13 11 -13 20 0 7 10 13 11 18 5 11 -16
112 -17 130 -2 13 9 14 9 8 0 -4 -7 -3 -13 3 -13 5 0 12 6 15 13 5 9 7 9 12 0
4 -9 11 -10 24 -3 13 7 20 6 22 -2 3 -7 7 -5 11 6 4 10 3 15 -3 11 -6 -3 -10
-1 -10 6 0 8 -4 8 -16 -2 -9 -8 -18 -9 -22 -3 -8 11 -43 11 -62 -1 -8 -5 -11
-4 -7 1 3 6 -20 10 -59 10 -35 0 -64 -4 -64 -9z"/>
<path d="M1990 40 c-6 -11 -8 -20 -6 -20 3 0 10 9 16 20 6 11 8 20 6 20 -3 0
-10 -9 -16 -20z"/>
<path d="M2060 41 c-8 -17 -7 -20 10 -18 21 1 27 21 11 32 -6 3 -15 -3 -21
-14z"/>
<path d="M2107 53 c-10 -10 -8 -25 2 -19 5 4 11 1 13 -5 2 -7 10 -4 18 7 11
13 12 16 1 10 -8 -5 -16 -4 -20 3 -4 6 -10 8 -14 4z"/>
<path d="M2166 44 c-10 -25 1 -29 14 -5 6 12 7 21 1 21 -5 0 -12 -7 -15 -16z"/>
<path d="M2208 49 c-27 -15 -22 -26 12 -27 24 0 30 3 30 21 0 20 0 20 -16 1
-13 -16 -15 -16 -10 -1 6 20 7 20 -16 6z"/>
<path d="M2274 45 c-7 -17 18 -45 40 -45 19 0 20 13 6 41 -13 23 -38 25 -46 4z"/>
<path d="M1 34 c0 -11 3 -14 6 -6 3 7 2 16 -1 19 -3 4 -6 -2 -5 -13z"/>
<path d="M446 41 c-4 -7 -5 -15 -2 -18 9 -9 19 4 14 18 -4 11 -6 11 -12 0z"/>
<path d="M1365 41 c-3 -5 -1 -12 4 -15 5 -3 11 1 15 9 6 16 -9 21 -19 6z"/>
</g>
</svg>
