<?xml version="1.0" standalone="no"?>
<!DOCTYPE svg PUBLIC "-//W3C//DTD SVG 20010904//EN"
 "http://www.w3.org/TR/2001/REC-SVG-20010904/DTD/svg10.dtd">
<svg version="1.0" xmlns="http://www.w3.org/2000/svg"
 width="799.000000pt" height="799.000000pt" viewBox="0 0 799.000000 799.000000"
 preserveAspectRatio="xMidYMid meet">
<metadata>
Created by potrace 1.11, written by Peter Selinger 2001-2013
</metadata>
<g transform="translate(0.000000,799.000000) scale(0.100000,-0.100000)"
fill="#000000" stroke="none">
<path d="M1270 3995 l0 -3995 2720 0 2720 0 0 3995 0 3995 -2720 0 -2720 0 0
-3995z m1986 2984 c65 -69 110 -129 162 -221 l21 -37 -34 -10 c-18 -5 -70 -30
-115 -55 -45 -25 -85 -46 -89 -46 -4 0 -22 -14 -41 -30 -31 -27 -32 -30 -11
-24 14 3 34 15 45 25 11 11 25 19 32 19 7 0 14 4 16 8 2 5 17 12 33 15 17 3
25 4 19 1 -13 -6 -7 -44 7 -44 6 0 12 7 15 15 9 21 23 9 17 -14 -3 -13 -10
-18 -21 -13 -15 5 -15 4 -2 -11 14 -15 16 -14 34 6 l19 22 -7 -38 c-5 -26 -4
-37 3 -32 7 4 9 -5 4 -26 -4 -23 -3 -30 5 -25 7 4 12 17 12 29 0 12 8 31 17
42 13 16 15 17 10 3 -4 -11 -1 -18 6 -19 8 0 8 -2 1 -5 -7 -3 -9 -23 -6 -53 2
-30 0 -51 -7 -55 -6 -4 -11 -14 -11 -22 0 -8 5 -12 10 -9 6 4 8 10 5 15 -3 5
-1 11 5 15 5 3 10 17 10 31 0 14 4 22 10 19 13 -8 13 -52 0 -60 -6 -4 -7 -12
-3 -18 4 -7 7 -25 6 -42 -1 -21 2 -16 10 17 7 25 15 49 19 53 4 4 4 13 1 21
-3 8 1 14 11 14 19 0 21 11 5 27 -6 6 -8 16 -5 22 17 27 23 5 20 -76 -3 -92
-2 -94 16 -25 6 23 15 40 20 37 6 -4 10 3 10 14 0 12 -4 21 -10 21 -5 0 -10 5
-10 11 0 5 5 7 10 4 6 -3 10 4 11 17 1 17 3 14 9 -10 4 -19 6 -64 5 -100 l-4
-67 12 58 c7 32 18 62 26 66 9 6 13 28 13 67 0 45 2 54 10 40 5 -10 8 -29 5
-42 -2 -14 0 -27 4 -30 5 -3 9 7 10 23 1 28 1 27 14 -7 l13 -35 3 55 c1 48 2
51 8 20 l6 -35 13 31 c14 32 62 55 62 29 0 -8 9 -10 26 -7 20 3 26 0 31 -17 3
-11 9 -21 14 -21 5 0 6 7 3 15 -9 23 6 18 33 -11 13 -14 26 -24 29 -21 3 2
-23 29 -57 58 -34 30 -86 77 -116 105 -30 28 -79 63 -109 79 -29 16 -54 31
-54 35 0 3 6 14 13 25 11 14 16 15 22 5 5 -8 4 -11 -2 -7 -6 4 -13 0 -17 -8
-10 -26 12 -16 45 20 18 19 37 35 42 35 6 0 1 -9 -11 -21 -12 -11 -20 -25 -16
-30 3 -6 17 3 31 18 l25 28 -6 -35 c-5 -25 -3 -31 5 -23 6 6 13 29 16 52 5 40
23 48 23 10 0 -27 7 -24 38 14 50 61 157 169 197 199 35 26 36 27 11 3 -23
-21 -26 -29 -15 -35 7 -5 10 -12 6 -17 -5 -4 -12 -1 -18 7 -8 13 -11 13 -19
-2 -6 -9 -17 -24 -26 -33 -8 -8 -11 -15 -5 -15 5 0 17 10 26 23 11 16 18 19
23 9 6 -9 14 -7 32 10 24 22 55 28 78 14 8 -5 12 -1 12 11 0 12 3 14 8 6 10
-16 27 -4 36 25 9 28 30 29 23 1 -5 -17 -2 -20 14 -16 15 4 19 0 20 -21 1 -24
2 -24 9 6 11 47 30 65 30 28 0 -23 2 -25 13 -14 8 7 16 20 20 28 3 10 6 6 7
-10 1 -14 2 -29 1 -33 -1 -5 3 -6 8 -3 5 4 12 0 14 -6 3 -8 6 -6 6 5 1 9 6 17
11 17 6 0 10 10 10 23 1 17 5 13 20 -18 11 -22 20 -33 20 -25 1 10 4 9 10 -5
5 -11 9 -14 9 -7 1 7 -4 22 -9 33 -6 10 -7 19 -2 19 13 0 146 -209 198 -311
57 -115 121 -289 130 -359 4 -30 11 -50 18 -48 6 2 58 15 115 28 l104 25 81
76 c96 89 177 152 185 143 3 -4 0 -9 -6 -11 -7 -3 -13 -9 -13 -14 0 -4 8 -5
18 -2 15 6 16 5 2 -13 -14 -19 -14 -19 7 -1 16 14 22 15 27 5 5 -10 7 -10 12
0 8 17 24 15 24 -3 0 -18 20 -20 20 -2 1 7 7 4 15 -7 8 -10 21 -16 29 -13 8 3
17 -1 20 -9 3 -8 14 -14 25 -14 13 0 20 -9 23 -30 3 -16 2 -30 -2 -30 -4 0
-49 -7 -101 -15 -100 -16 -169 -34 -169 -44 0 -3 35 -5 78 -5 42 1 83 -3 90
-8 6 -6 12 -7 12 -3 0 4 -8 14 -17 21 -12 9 -14 13 -5 14 22 0 53 -20 47 -31
-4 -5 -2 -9 4 -9 5 0 11 6 14 13 2 6 7 9 11 6 10 -10 -5 -39 -20 -39 -22 0
-16 -17 8 -23 14 -4 26 0 34 11 11 15 14 14 32 -8 21 -25 21 -25 36 -5 15 19
15 18 9 -15 -3 -19 -11 -41 -17 -49 -6 -8 4 -4 22 9 35 26 39 31 20 26 -7 -1
-10 -1 -5 1 4 3 7 11 7 18 0 8 3 16 8 18 4 3 7 -10 7 -28 0 -18 -3 -37 -7 -41
-5 -4 -8 -11 -8 -15 0 -12 33 1 48 19 6 9 12 14 13 11 0 -2 2 -28 5 -58 4 -59
12 -77 20 -44 4 14 12 19 24 16 19 -5 35 -47 25 -63 -4 -6 0 -10 8 -10 11 0
12 11 6 57 -9 65 -4 86 6 27 4 -22 11 -52 16 -69 5 -16 9 -56 10 -88 2 -49 5
-57 18 -51 9 4 70 8 136 10 118 3 127 1 52 -11 -33 -5 -36 -8 -22 -21 8 -8 20
-12 25 -9 20 12 60 -4 60 -25 0 -11 9 -44 21 -75 l21 -55 -25 -43 c-13 -23
-55 -103 -92 -177 -105 -208 -200 -366 -283 -470 -24 -30 -57 -73 -75 -95 -85
-108 -362 -363 -454 -417 -18 -11 -32 -22 -31 -24 2 -1 57 19 123 45 220 88
364 121 525 121 153 0 273 -41 340 -116 22 -25 19 -24 -20 7 -42 32 -91 59
-108 59 -4 0 4 -9 18 -20 18 -14 21 -20 10 -21 -8 -1 1 -4 20 -8 25 -4 34 -11
32 -22 -1 -9 6 -20 15 -24 16 -7 15 -9 -7 -15 l-25 -7 25 -11 25 -11 -30 -1
c-25 0 -28 -3 -15 -13 21 -17 23 -37 5 -37 -9 0 -15 -6 -13 -13 2 -7 -13 -27
-32 -45 -19 -17 -29 -32 -22 -32 6 0 12 5 12 10 0 6 7 10 15 10 8 0 15 -3 15
-6 0 -12 -34 -33 -52 -34 -10 0 -18 -4 -18 -9 0 -5 -25 -26 -56 -47 -31 -21
-51 -40 -45 -42 6 -2 8 -8 5 -14 -4 -6 -9 -5 -14 3 -7 10 -11 10 -24 0 -9 -7
-14 -17 -11 -21 6 -10 -14 -26 -45 -34 -39 -11 -70 -28 -65 -36 8 -13 -43 -40
-62 -34 -14 5 -15 4 -4 -4 11 -8 10 -12 -8 -21 -13 -7 -21 -8 -21 -2 0 6 -7 8
-16 4 -13 -5 -13 -7 -2 -14 10 -7 9 -9 -4 -9 -10 0 -18 -6 -19 -12 0 -10 -2
-10 -5 -1 -4 9 -15 8 -45 -2 -22 -8 -44 -17 -49 -20 -5 -3 56 -70 136 -148
111 -107 165 -169 225 -257 80 -116 121 -166 161 -194 12 -9 19 -18 16 -22 -4
-3 -35 23 -70 58 -34 34 -67 62 -71 60 -5 -1 -6 2 -2 8 8 13 -39 82 -50 72 -5
-4 -5 -2 -1 5 8 14 -23 55 -36 47 -4 -3 -5 3 -1 12 5 13 3 15 -7 9 -9 -5 -11
-4 -6 3 4 7 -18 36 -51 70 -32 32 -48 46 -35 32 12 -15 19 -30 15 -35 -5 -4
-3 -5 3 -2 6 4 16 -5 22 -18 7 -14 16 -25 22 -25 5 0 10 -5 10 -12 0 -7 -6 -6
-17 4 -20 17 -43 13 -43 -8 0 -8 6 -11 17 -7 10 4 14 2 10 -4 -5 -7 0 -9 13
-6 12 3 20 2 19 -3 -4 -21 2 -35 11 -29 6 3 10 1 10 -4 0 -6 -9 -11 -20 -11
-11 0 -20 -7 -20 -16 0 -8 -4 -12 -10 -9 -5 3 -10 4 -10 1 0 -14 20 -14 34 0
14 14 16 14 16 0 0 -9 6 -13 14 -10 8 3 17 1 20 -5 5 -7 -4 -9 -23 -7 -17 2
-28 -1 -25 -5 3 -5 14 -9 24 -9 10 0 22 -5 26 -12 5 -7 2 -9 -7 -4 -8 4 -3 -2
11 -13 30 -25 10 -28 -34 -6 -23 12 -26 12 -17 1 7 -8 23 -17 38 -21 42 -10
19 -16 -26 -6 -49 11 -52 6 -8 -14 l32 -15 -32 3 c-26 3 -30 1 -22 -10 7 -7
22 -13 35 -13 13 0 24 -4 24 -10 0 -13 -4 -13 -47 5 -22 10 -40 12 -46 6 -5
-5 3 -12 22 -16 58 -12 32 -25 -41 -21 -62 4 -65 4 -19 -3 30 -4 56 -12 59
-19 3 -9 15 -10 40 -6 34 7 35 6 20 -10 -14 -14 -31 -15 -117 -10 -71 5 -101
4 -101 -4 0 -6 23 -13 53 -15 36 -2 26 -4 -35 -5 -93 -2 -121 -8 -112 -24 4
-6 9 -6 13 -2 3 5 38 7 76 4 l70 -5 -99 -9 c-105 -9 -114 -24 -16 -27 l55 -2
-45 -7 c-44 -7 -44 -7 -10 -10 71 -5 -125 -27 -205 -23 -96 6 -275 48 -410 99
-124 46 -336 146 -381 181 -19 14 -34 20 -34 13 0 -6 8 -14 18 -17 20 -5 48
-43 32 -43 -5 0 -10 5 -10 10 0 6 -6 10 -13 10 -8 0 -22 9 -32 20 -10 11 -24
20 -31 20 -7 0 -16 9 -19 20 -4 12 -14 20 -23 19 -35 -3 -44 1 -38 17 4 10 1
14 -6 12 -7 -3 -20 5 -30 16 l-17 21 -1 -22 c0 -31 -13 -29 -27 5 -7 15 -18
35 -25 44 -20 27 2 36 23 9 10 -13 19 -19 19 -14 0 6 -8 18 -19 27 -10 9 -19
28 -18 42 0 28 -31 67 -46 57 -6 -4 -7 -1 -3 6 5 7 -4 30 -20 54 -53 79 -94
149 -120 207 -19 42 -37 66 -65 84 -39 26 -54 32 -45 18 2 -4 7 -34 10 -67 4
-33 9 -85 12 -115 3 -30 28 -143 55 -250 49 -193 72 -295 83 -377 l6 -42 -38
39 c-22 21 -53 61 -71 88 -32 50 -61 82 -61 67 0 -5 7 -17 17 -27 9 -10 13
-21 9 -25 -4 -4 -12 -1 -17 7 -9 12 -10 12 -5 -2 3 -11 0 -18 -7 -19 -7 0 3
-7 21 -15 29 -13 31 -16 20 -34 -11 -17 -14 -18 -16 -5 -2 9 -10 14 -18 11
-19 -7 -64 43 -64 72 0 16 -5 22 -13 19 -9 -3 -13 3 -13 16 1 12 -6 23 -15 25
-12 2 -15 -3 -12 -21 3 -16 -1 -26 -11 -30 -11 -5 -16 -1 -16 13 0 22 -16 27
-23 8 -3 -8 -6 -6 -6 5 -1 9 4 17 11 17 6 0 3 9 -7 20 -16 18 -14 24 6 22 20
-3 -8 37 -37 53 -19 10 -34 23 -34 28 0 6 -2 8 -5 5 -10 -10 7 -38 23 -38 8 0
12 -3 9 -7 -4 -3 -2 -12 4 -19 6 -7 6 -14 0 -18 -14 -9 -53 64 -47 88 5 20 4
20 -14 -2 -11 -14 -21 -18 -25 -12 -4 6 -1 18 7 27 11 14 10 15 -11 8 -19 -6
-23 -4 -18 8 3 9 1 17 -4 19 -6 2 -12 16 -12 31 -1 15 -6 27 -10 27 -14 0 -37
28 -37 44 0 9 -5 16 -11 16 -6 0 -8 7 -5 16 3 8 2 12 -4 9 -6 -3 -10 1 -10 9
0 9 -4 16 -10 16 -5 0 -10 7 -10 16 0 14 2 14 16 3 12 -10 11 -4 -5 26 -12 23
-21 59 -22 85 0 34 -2 40 -9 25 -18 -43 1 141 35 334 9 52 14 108 11 123 l-6
28 32 -35 c17 -20 33 -34 35 -31 5 5 16 -3 49 -33 8 -7 24 -11 35 -8 23 6 99
-29 99 -45 0 -5 5 -6 10 -3 9 6 44 -21 46 -34 0 -3 4 -49 9 -101 5 -52 11 -84
13 -70 4 28 36 63 47 52 3 -4 11 1 16 10 5 10 16 15 23 12 55 -21 -11 125 -79
176 -44 33 -56 50 -34 50 5 0 7 5 4 11 -4 6 -14 8 -23 4 -9 -3 -13 -3 -9 1 17
17 -18 34 -73 34 -32 0 -77 7 -100 15 -23 8 -57 15 -74 16 -24 1 -26 2 -11 7
22 8 30 40 20 79 -4 19 -9 22 -19 14 -10 -8 -16 -8 -25 2 -6 9 -26 13 -48 11
-21 -2 -42 -3 -46 -3 -5 -1 -6 -5 -2 -10 3 -6 -3 -14 -12 -20 -14 -8 -16 -12
-5 -22 18 -19 15 -29 -9 -29 -11 0 -17 -4 -14 -10 4 -6 15 -8 26 -5 35 12 19
-2 -48 -42 -241 -141 -400 -214 -438 -199 -8 3 -17 1 -20 -4 -4 -6 1 -10 10
-10 9 0 13 -5 10 -10 -5 -8 -11 -7 -20 0 -8 7 -27 9 -44 5 -17 -3 -32 -2 -36
4 -4 8 -12 8 -24 1 -12 -6 -30 -6 -52 0 -19 6 -50 10 -69 10 -29 0 -84 19 -56
20 5 0 3 7 -5 16 -10 13 -10 17 2 24 19 12 -11 34 -69 51 -24 6 -72 29 -107
50 -35 22 -68 39 -73 39 -4 0 -17 8 -28 18 -10 10 -35 24 -54 32 -61 26 -170
94 -170 108 0 7 -8 12 -17 10 -23 -4 -29 33 -13 73 14 33 14 33 42 18 28 -15
76 -20 83 -8 4 5 -11 9 -32 10 -32 1 -34 2 -13 8 17 5 21 9 12 15 -7 4 -22 4
-33 1 -13 -5 -19 -3 -15 3 3 5 -9 12 -26 16 -18 4 -51 15 -73 26 -22 10 -65
23 -96 29 -56 10 -220 70 -269 97 -21 13 -22 14 -3 9 12 -3 24 -1 28 5 3 5 1
10 -4 10 -6 0 -11 5 -11 11 0 7 12 10 30 7 32 -5 37 1 18 20 -8 8 -3 10 23 8
19 -2 42 -6 53 -11 11 -5 21 -3 25 4 8 13 40 5 54 -13 6 -8 10 -7 14 2 3 9 12
7 33 -8 15 -11 33 -20 39 -20 5 0 22 -5 36 -12 24 -11 25 -13 8 -19 -12 -5 -5
-7 19 -6 21 1 38 3 38 5 0 2 -13 8 -30 13 -16 6 -28 15 -25 19 3 5 -1 11 -7
14 -7 3 1 2 17 -1 17 -3 33 -10 36 -16 4 -5 12 -6 18 -3 6 4 11 3 11 -1 0 -5
17 -15 38 -23 20 -7 49 -22 64 -33 14 -10 32 -17 40 -15 13 5 84 -25 90 -39 4
-11 63 -43 78 -43 6 0 18 -7 27 -15 10 -11 26 -14 51 -10 l37 5 -40 -15 -40
-14 40 5 c31 4 37 2 25 -6 -12 -9 -9 -10 13 -5 16 3 26 2 23 -3 -3 -5 13 -12
37 -15 23 -3 56 -8 72 -11 30 -5 30 -5 5 7 -45 21 -72 45 -59 49 9 3 7 7 -5
11 -10 4 -15 3 -11 -3 3 -6 2 -10 -2 -10 -9 0 -43 36 -43 46 0 13 -51 53 -63
50 -6 -1 -9 -1 -4 1 17 10 5 24 -15 18 -22 -6 -22 -5 -5 9 18 14 18 15 0 25
-10 6 -14 11 -9 11 5 0 -4 12 -19 28 -15 15 -31 37 -36 50 -5 13 -14 20 -19
17 -6 -4 -9 -3 -8 2 3 13 -13 53 -22 53 -5 0 -10 -6 -13 -12 -2 -8 -8 -9 -13
-4 -5 5 -4 11 4 13 18 7 15 22 -12 57 -13 17 -27 42 -31 55 -4 14 -15 32 -24
42 -9 10 -27 47 -40 83 -18 48 -28 63 -39 58 -11 -4 -13 -1 -7 8 5 8 2 17 -7
24 -8 6 -17 18 -21 26 -4 12 -6 11 -6 -2 -1 -10 -5 -18 -9 -18 -4 0 -6 17 -4
37 4 34 6 35 18 18 19 -26 18 -21 -17 75 -17 47 -33 95 -36 108 -10 43 -20 31
-16 -21 l4 -52 -16 34 c-8 18 -15 46 -15 62 0 17 -6 32 -14 35 -16 6 -39 94
-31 116 3 7 -5 24 -16 38 l-20 25 7 -45 c3 -25 13 -67 21 -95 9 -27 15 -66 15
-85 l0 -35 12 33 12 34 1 -54 c1 -30 12 -82 27 -121 14 -37 26 -73 25 -80 0
-6 -5 0 -11 16 -5 15 -13 25 -18 22 -8 -5 -40 97 -40 127 0 9 -5 18 -11 20 -6
2 -13 28 -15 58 -2 29 -7 56 -12 59 -9 7 -52 168 -59 223 -3 22 -9 35 -15 32
-7 -4 -8 5 -3 25 4 18 3 37 -3 44 -13 17 -35 132 -29 149 3 7 6 2 6 -12 1 -15
6 -31 13 -38 7 -7 22 -52 33 -100 l22 -87 -1 83 c-1 46 -3 73 -6 60 -8 -31
-16 -12 -19 42 -1 24 -7 50 -13 57 -6 8 -8 16 -5 19 10 10 27 -6 27 -27 0 -10
4 -19 9 -19 5 0 9 16 9 35 0 19 -4 32 -9 29 -5 -3 -9 2 -9 10 0 23 10 20 42
-11 15 -14 31 -23 35 -19 4 4 1 11 -7 16 -8 5 -11 12 -8 16 9 8 41 -23 34 -34
-3 -5 9 -9 26 -9 l31 0 -32 29 c-17 15 -26 28 -20 28 20 0 211 -195 270 -275
32 -44 62 -84 66 -90 23 -28 125 -196 138 -229 9 -21 17 -37 18 -35 1 2 0 112
-3 244 -6 295 3 480 27 560 16 50 26 64 61 88 37 25 42 33 42 67 0 21 4 41 8
44 4 2 7 -17 6 -44 -2 -39 0 -48 14 -46 11 2 23 26 37 70 11 37 22 66 25 63 3
-3 6 6 7 20 0 14 5 28 10 32 6 3 13 18 17 33 5 21 12 27 29 25 14 -1 25 5 31
19 11 24 46 50 46 34 0 -21 20 -9 21 13 1 13 6 5 14 -23 10 -34 13 -39 15 -20
1 14 6 34 11 45 7 14 8 2 5 -40 -4 -46 -2 -56 6 -41 8 15 12 16 19 5 6 -10 9
-8 9 8 0 12 2 27 3 35 2 7 2 10 0 5 -6 -9 -23 1 -23 14 0 5 7 9 15 9 8 0 15 5
15 11 0 5 3 8 8 6 4 -3 6 16 5 41 0 26 1 35 4 20 2 -16 9 -28 15 -28 5 0 8 7
5 15 -4 8 -2 17 3 20 4 3 13 -7 18 -22 l10 -28 2 30 c2 29 2 29 16 -10 l14
-40 -5 55 c-3 38 -2 49 4 35 9 -19 10 -19 10 3 1 32 21 27 22 -5 0 -23 2 -25
8 -9 7 18 8 18 24 -5 9 -13 17 -17 17 -10 0 7 6 11 14 8 9 -4 16 1 19 11 3 13
7 9 16 -13 9 -21 14 -26 20 -16 6 9 11 10 15 2 4 -6 4 -17 0 -23 -5 -9 -3 -9
9 1 9 7 14 17 11 22 -3 5 2 6 11 3 11 -5 13 -10 5 -19 -8 -9 -8 -15 0 -20 5
-3 10 -1 10 5 0 6 5 8 11 5 6 -4 8 -13 5 -20 -8 -21 19 -38 33 -22 15 19 2 30
-18 14 -14 -11 -14 -10 -2 6 9 12 10 17 2 17 -7 0 -10 4 -7 9 3 5 -15 26 -40
46 -25 21 -67 58 -92 82 -31 30 -20 23 33 -20 44 -36 112 -98 151 -138z m-125
84 c13 -16 12 -17 -3 -4 -17 13 -22 21 -14 21 2 0 10 -8 17 -17z m-294 -55
c-3 -8 -6 -5 -6 6 -1 11 2 17 5 13 3 -3 4 -12 1 -19z m-30 -45 c-3 -10 -5 -4
-5 12 0 17 2 24 5 18 2 -7 2 -21 0 -30z m-104 -38 c-3 -9 -8 -14 -10 -11 -3 3
-2 9 2 15 9 16 15 13 8 -4z m957 -52 c-8 -3 -23 -12 -32 -21 -22 -19 -24 -9
-2 12 8 9 23 16 32 15 14 0 14 -2 2 -6z m-60 -43 c0 -5 -5 -10 -11 -10 -5 0
-7 5 -4 10 3 6 8 10 11 10 2 0 4 -4 4 -10z m-213 -226 c-3 -3 -12 -4 -19 -1
-8 3 -5 6 6 6 11 1 17 -2 13 -5z m288 -14 c3 -5 1 -10 -4 -10 -6 0 -11 5 -11
10 0 6 2 10 4 10 3 0 8 -4 11 -10z m-168 -72 c-3 -8 -6 -5 -6 6 -1 11 2 17 5
13 3 -3 4 -12 1 -19z m-70 -30 c-3 -8 -6 -5 -6 6 -1 11 2 17 5 13 3 -3 4 -12
1 -19z m148 -3 c0 -14 -3 -25 -7 -25 -10 0 -10 34 -1 43 3 4 7 7 7 7 1 0 1
-11 1 -25z m1838 -12 c-7 -2 -19 -2 -25 0 -7 3 -2 5 12 5 14 0 19 -2 13 -5z
m-3552 -70 c13 -17 13 -17 -6 -3 -11 8 -22 16 -24 17 -2 2 0 3 6 3 6 0 17 -8
24 -17z m-41 -508 c0 -5 -5 -3 -10 5 -5 8 -10 20 -10 25 0 6 5 3 10 -5 5 -8
10 -19 10 -25z m7 -57 c-3 -8 -6 -5 -6 6 -1 11 2 17 5 13 3 -3 4 -12 1 -19z
m161 -239 c-1 -37 -3 -40 -15 -23 -7 10 -13 23 -13 28 0 6 5 4 10 -4 8 -12 10
-9 10 13 0 15 2 27 5 27 3 0 4 -19 3 -41z m-8 -119 c6 -15 12 -34 14 -42 3
-21 106 -227 117 -234 5 -3 9 -11 9 -17 -1 -15 -50 44 -50 60 0 6 -4 15 -10
18 -6 3 -7 -1 -4 -9 3 -9 4 -16 1 -16 -2 0 -15 28 -27 63 -13 34 -27 67 -32
74 -5 6 -11 22 -13 35 -6 38 -17 68 -25 68 -4 0 -10 6 -13 13 -10 27 22 13 33
-13z m37 -12 c-3 -8 -6 -5 -6 6 -1 11 2 17 5 13 3 -3 4 -12 1 -19z m79 -133
c-3 -8 -1 -15 4 -15 6 0 10 -7 10 -16 0 -13 -2 -13 -13 -2 -16 15 -18 48 -4
48 5 0 7 -7 3 -15z m50 -62 c-10 -10 -46 -11 -40 -1 3 4 15 8 26 8 12 0 18 -3
14 -7z m4 -138 c0 -5 -5 -3 -10 5 -5 8 -10 20 -10 25 0 6 5 3 10 -5 5 -8 10
-19 10 -25z m-470 15 l25 -8 -25 -1 c-14 0 -32 4 -40 9 -13 9 -13 10 0 9 8 -1
26 -5 40 -9z m80 -10 c24 -8 24 -8 -7 -9 -17 -1 -35 4 -38 9 -7 11 9 11 45 0z
m70 -20 c18 -12 2 -12 -25 0 -13 6 -15 9 -5 9 8 0 22 -4 30 -9z m341 -13 c-1
-12 -15 -9 -19 4 -3 6 1 10 8 8 6 -3 11 -8 11 -12z m-241 -17 c8 -5 11 -10 5
-10 -5 0 -17 5 -25 10 -8 5 -10 10 -5 10 6 0 17 -5 25 -10z m135 -60 c3 -6 -1
-7 -9 -4 -18 7 -21 14 -7 14 6 0 13 -4 16 -10z m-215 -261 c0 -5 -4 -9 -10 -9
-5 0 -10 7 -10 16 0 8 5 12 10 9 6 -3 10 -10 10 -16z m200 -89 c0 -5 -5 -10
-11 -10 -5 0 -7 5 -4 10 3 6 8 10 11 10 2 0 4 -4 4 -10z m5 -40 c3 -6 -1 -7
-9 -4 -18 7 -21 14 -7 14 6 0 13 -4 16 -10z m3555 -404 c0 -2 -7 -7 -16 -10
-8 -3 -12 -2 -9 4 6 10 25 14 25 6z m-2233 -208 c-3 -8 -6 -5 -6 6 -1 11 2 17
5 13 3 -3 4 -12 1 -19z m618 -27 c3 -5 2 -12 -3 -15 -5 -3 -9 1 -9 9 0 17 3
19 12 6z m10 -41 c3 -5 1 -10 -4 -10 -6 0 -11 5 -11 10 0 6 2 10 4 10 3 0 8
-4 11 -10z m105 -146 c0 -14 -4 -23 -10 -19 -5 3 -10 15 -10 26 0 10 5 19 10
19 6 0 10 -12 10 -26z m-387 -289 c-3 -9 -8 -14 -10 -11 -3 3 -2 9 2 15 9 16
15 13 8 -4z m1941 -34 c4 -5 -3 -7 -14 -4 -23 6 -26 13 -6 13 8 0 17 -4 20 -9z
m-1967 -83 c-3 -8 -6 -5 -6 6 -1 11 2 17 5 13 3 -3 4 -12 1 -19z m58 -18 c10
-11 22 -20 26 -20 5 0 37 -13 71 -30 34 -16 67 -30 74 -30 7 0 18 -8 23 -17 9
-16 12 -16 21 -3 5 8 10 11 10 5 0 -5 3 -21 7 -34 4 -16 2 -22 -4 -18 -7 4 -9
0 -6 -11 6 -25 -21 -45 -56 -40 -33 5 -33 -17 0 -25 18 -5 19 -9 9 -27 -8 -15
-9 -49 -5 -106 8 -91 -5 -116 -21 -41 -9 38 -12 42 -37 40 -22 -1 -27 2 -27
22 0 13 -4 27 -10 30 -6 4 -10 -7 -10 -24 0 -17 5 -31 10 -31 13 0 13 -37 0
-45 -5 -3 -12 6 -16 20 -3 14 -10 25 -16 25 -5 0 -6 5 -2 11 3 6 3 14 -2 18
-22 16 -44 73 -44 116 0 31 -4 44 -11 39 -8 -4 -9 0 -4 15 5 16 3 20 -9 15 -9
-3 -16 -1 -16 5 0 6 5 11 11 11 5 0 -2 23 -17 50 -15 28 -24 53 -21 57 4 3 7
1 7 -5 0 -25 18 -11 24 18 7 35 16 37 41 10z m1608 -87 c-7 -2 -21 -2 -30 0
-10 3 -4 5 12 5 17 0 24 -2 18 -5z m-1356 -55 c-3 -8 -6 -5 -6 6 -1 11 2 17 5
13 3 -3 4 -12 1 -19z m-332 -24 c-8 -16 -15 -23 -15 -16 0 17 20 55 26 49 2
-2 -2 -17 -11 -33z m55 -40 c0 -8 -4 -12 -10 -9 -5 3 -10 10 -10 16 0 5 5 9
10 9 6 0 10 -7 10 -16z m-41 -25 c9 -27 9 -30 -4 -19 -8 7 -15 21 -15 31 0 28
7 23 19 -12z m328 -56 c-2 -16 -4 -5 -4 22 0 28 2 40 4 28 2 -13 2 -35 0 -50z
m-282 -43 c8 -16 15 -35 15 -43 0 -22 24 -67 37 -67 6 0 14 6 17 13 3 6 3 -4
0 -23 -4 -26 0 -40 15 -57 17 -18 18 -22 5 -27 -22 -9 -44 18 -44 54 0 18 -6
33 -16 37 -8 3 -13 12 -10 19 3 8 1 14 -4 14 -6 0 -10 8 -10 18 0 10 -9 25
-20 35 -21 17 -28 57 -10 57 5 0 16 -13 25 -30z m282 -87 c-2 -16 -4 -5 -4 22
0 28 2 40 4 28 2 -13 2 -35 0 -50z m-207 23 c0 -3 -4 -8 -10 -11 -5 -3 -10 -1
-10 4 0 6 5 11 10 11 6 0 10 -2 10 -4z m90 -48 c0 -38 -2 -41 -15 -27 -12 12
-14 21 -6 42 15 38 21 33 21 -15z m-7 -85 c-7 -2 -19 -2 -25 0 -7 3 -2 5 12 5
14 0 19 -2 13 -5z m7 -21 c0 -14 -11 -21 -26 -15 -8 3 -11 9 -8 14 7 11 34 12
34 1z m7 -124 c-3 -8 -6 -5 -6 6 -1 11 2 17 5 13 3 -3 4 -12 1 -19z"/>
<path d="M3986 7001 c-4 -7 -5 -15 -2 -18 9 -9 19 4 14 18 -4 11 -6 11 -12 0z"/>
<path d="M4021 6994 c0 -11 3 -14 6 -6 3 7 2 16 -1 19 -3 4 -6 -2 -5 -13z"/>
<path d="M2911 6964 c0 -11 3 -14 6 -6 3 7 2 16 -1 19 -3 4 -6 -2 -5 -13z"/>
<path d="M4361 6964 c0 -11 3 -14 6 -6 3 7 2 16 -1 19 -3 4 -6 -2 -5 -13z"/>
<path d="M3266 6937 c3 -10 9 -15 12 -12 3 3 0 11 -7 18 -10 9 -11 8 -5 -6z"/>
<path d="M2732 6919 c-7 -12 -11 -23 -8 -26 7 -7 36 23 36 36 0 18 -14 13 -28
-10z"/>
<path d="M2685 6847 c-8 -20 -14 -49 -14 -64 1 -20 3 -22 6 -8 2 11 11 37 20
58 9 20 13 40 10 44 -4 3 -14 -10 -22 -30z"/>
<path d="M5117 6566 c-4 -10 -1 -13 9 -9 15 6 19 23 5 23 -5 0 -11 -7 -14 -14z"/>
<path d="M3093 6535 c-19 -21 -16 -27 7 -13 11 7 20 16 20 20 0 12 -14 9 -27
-7z"/>
<path d="M3321 6439 c-6 -18 -9 -34 -7 -36 2 -2 9 10 15 28 6 18 9 34 7 36 -2
2 -9 -10 -15 -28z"/>
<path d="M3671 6454 c0 -11 3 -14 6 -6 3 7 2 16 -1 19 -3 4 -6 -2 -5 -13z"/>
<path d="M3343 6423 c-3 -10 -8 -22 -11 -27 -3 -5 0 -6 5 -3 11 7 25 47 17 47
-3 0 -7 -8 -11 -17z"/>
<path d="M5065 6400 c-3 -5 -1 -10 4 -10 6 0 11 5 11 10 0 6 -2 10 -4 10 -3 0
-8 -4 -11 -10z"/>
<path d="M3300 6383 c0 -6 8 -17 18 -24 16 -13 16 -13 2 6 -8 11 -16 22 -17
24 -2 2 -3 0 -3 -6z"/>
<path d="M3581 6354 c0 -11 3 -14 6 -6 3 7 2 16 -1 19 -3 4 -6 -2 -5 -13z"/>
<path d="M3486 6308 c-8 -25 -16 -111 -10 -106 6 7 23 118 17 118 -2 0 -5 -6
-7 -12z"/>
<path d="M1920 6300 c0 -5 5 -10 10 -10 6 0 10 5 10 10 0 6 -4 10 -10 10 -5 0
-10 -4 -10 -10z"/>
<path d="M1952 6298 c-14 -14 -16 -38 -3 -38 8 0 23 41 17 47 -1 1 -8 -3 -14
-9z"/>
<path d="M3281 6294 c0 -11 3 -14 6 -6 3 7 2 16 -1 19 -3 4 -6 -2 -5 -13z"/>
<path d="M3540 6299 c0 -5 5 -7 10 -4 6 3 10 8 10 11 0 2 -4 4 -10 4 -5 0 -10
-5 -10 -11z"/>
<path d="M3421 6264 c0 -11 3 -14 6 -6 3 7 2 16 -1 19 -3 4 -6 -2 -5 -13z"/>
<path d="M1830 6041 c0 -11 4 -22 9 -25 4 -3 6 6 3 19 -5 30 -12 33 -12 6z"/>
<path d="M5885 5950 c3 -5 8 -10 11 -10 2 0 4 5 4 10 0 6 -5 10 -11 10 -5 0
-7 -4 -4 -10z"/>
<path d="M1890 5895 c0 -8 2 -15 4 -15 2 0 6 7 10 15 3 8 1 15 -4 15 -6 0 -10
-7 -10 -15z"/>
<path d="M2692 5870 c0 -19 2 -27 5 -17 2 9 2 25 0 35 -3 9 -5 1 -5 -18z"/>
<path d="M2632 5855 c0 -16 2 -22 5 -12 2 9 2 23 0 30 -3 6 -5 -1 -5 -18z"/>
<path d="M1900 5851 c0 -11 4 -22 9 -25 4 -3 6 6 3 19 -5 30 -12 33 -12 6z"/>
<path d="M1930 5836 c0 -8 5 -18 10 -21 6 -3 10 1 10 9 0 8 -4 18 -10 21 -5 3
-10 -1 -10 -9z"/>
<path d="M2638 5725 c2 -44 6 -82 8 -84 7 -8 2 104 -6 134 -4 17 -5 -5 -2 -50z"/>
<path d="M2696 5705 c7 -127 7 -137 -7 -171 l-12 -29 -7 30 c-11 45 -11 81 -1
70 5 -6 11 -21 14 -35 3 -14 4 2 3 34 -1 40 -6 61 -15 64 -10 3 -12 -1 -8 -17
3 -14 1 -21 -9 -21 -11 0 -13 -12 -8 -57 3 -32 13 -71 20 -87 16 -32 13 -41
-11 -33 -8 4 -15 16 -15 27 0 11 -5 20 -11 20 -14 0 -3 -63 11 -68 6 -2 10
-11 11 -20 0 -11 2 -12 6 -4 8 20 20 14 33 -18 7 -16 16 -30 21 -30 12 0 12
27 0 34 -12 8 -20 55 -10 62 5 3 9 15 10 27 1 18 3 16 10 -8 5 -16 7 -36 4
-44 -3 -8 0 -18 6 -22 9 -5 9 -15 0 -39 -6 -18 -11 -40 -10 -49 0 -9 6 2 14
24 l13 40 1 -32 c1 -17 6 -35 11 -38 6 -3 10 -15 10 -25 0 -10 4 -21 9 -24 11
-7 1 45 -11 61 -5 7 -7 17 -3 23 4 6 2 16 -3 23 -5 7 -10 19 -10 27 0 8 -7 55
-16 104 -8 49 -12 94 -9 99 3 5 1 12 -5 16 -5 3 -15 47 -20 96 l-11 90 5 -100z
m4 -215 c0 -5 -5 -10 -11 -10 -5 0 -7 5 -4 10 3 6 8 10 11 10 2 0 4 -4 4 -10z"/>
<path d="M2727 5777 c-3 -8 -2 -29 3 -48 8 -33 8 -33 9 14 1 48 -3 58 -12 34z"/>
<path d="M3339 5742 c-3 -20 -2 -29 4 -23 5 5 7 19 5 32 -3 20 -5 19 -9 -9z"/>
<path d="M2660 5705 c0 -8 4 -15 10 -15 5 0 7 7 4 15 -4 8 -8 15 -10 15 -2 0
-4 -7 -4 -15z"/>
<path d="M2737 5632 c4 -49 14 -116 40 -257 3 -16 12 -39 20 -50 12 -18 13
-17 8 15 -3 26 -3 29 3 10 4 -14 17 -27 27 -29 15 -3 17 0 8 10 -18 24 -34 84
-39 155 -2 38 -10 71 -16 75 -6 4 -8 15 -4 24 3 9 -1 26 -9 38 l-15 21 0 -22
c0 -12 4 -22 8 -22 5 0 7 -13 4 -30 -3 -20 0 -30 9 -30 10 0 10 -3 1 -12 -18
-18 -23 -6 -31 76 -8 89 -19 112 -14 28z m40 -144 c-3 -8 -6 -5 -6 6 -1 11 2
17 5 13 3 -3 4 -12 1 -19z m19 -53 l0 -55 -15 37 c-11 27 -12 38 -3 41 7 2 12
10 12 18 0 8 1 14 3 14 1 0 3 -25 3 -55z"/>
<path d="M2603 5616 c3 -7 9 -34 12 -60 4 -25 11 -46 15 -46 5 0 4 15 -1 32
-5 18 -9 45 -9 60 0 16 -5 28 -11 28 -6 0 -9 -6 -6 -14z"/>
<path d="M2591 5574 c0 -11 3 -14 6 -6 3 7 2 16 -1 19 -3 4 -6 -2 -5 -13z"/>
<path d="M3437 5553 c-4 -3 -7 -11 -7 -17 0 -6 5 -5 12 2 6 6 9 14 7 17 -3 3
-9 2 -12 -2z"/>
<path d="M2601 5534 c0 -11 3 -14 6 -6 3 7 2 16 -1 19 -3 4 -6 -2 -5 -13z"/>
<path d="M3362 5515 c0 -16 2 -22 5 -12 2 9 2 23 0 30 -3 6 -5 -1 -5 -18z"/>
<path d="M2667 5360 c-3 -11 -1 -20 4 -20 5 0 9 9 9 20 0 11 -2 20 -4 20 -2 0
-6 -9 -9 -20z"/>
<path d="M2680 5322 c0 -5 7 -17 15 -28 15 -19 20 -8 9 20 -6 17 -24 22 -24 8z"/>
<path d="M2840 5293 c1 -10 12 -38 26 -63 14 -25 23 -37 20 -27 -4 11 -9 30
-12 43 -3 13 -11 24 -16 24 -6 0 -8 7 -5 15 4 8 2 17 -3 20 -6 4 -10 -2 -10
-12z"/>
<path d="M2705 5260 c3 -5 8 -10 11 -10 2 0 4 5 4 10 0 6 -5 10 -11 10 -5 0
-7 -4 -4 -10z"/>
<path d="M2825 5250 c-3 -5 -1 -10 4 -10 6 0 11 5 11 10 0 6 -2 10 -4 10 -3 0
-8 -4 -11 -10z"/>
<path d="M3301 5074 c0 -11 3 -14 6 -6 3 7 2 16 -1 19 -3 4 -6 -2 -5 -13z"/>
<path d="M1875 5030 c3 -5 8 -10 11 -10 2 0 4 5 4 10 0 6 -5 10 -11 10 -5 0
-7 -4 -4 -10z"/>
<path d="M4386 4903 c-6 -14 -5 -15 5 -6 7 7 10 15 7 18 -3 3 -9 -2 -12 -12z"/>
<path d="M4389 4853 c-13 -16 -12 -17 4 -4 9 7 17 15 17 17 0 8 -8 3 -21 -13z"/>
<path d="M1997 4807 c-4 -10 2 -13 21 -10 27 4 27 4 -3 -11 -16 -8 -28 -15
-25 -16 29 -8 164 -89 163 -97 -1 -6 6 -9 17 -6 11 3 20 0 20 -6 0 -6 7 -11
15 -11 8 0 15 5 15 10 0 6 -4 10 -9 10 -6 0 -30 14 -54 30 -25 17 -51 30 -58
30 -11 0 -11 2 0 13 11 10 14 9 18 -1 7 -17 49 -33 68 -26 22 9 18 24 -5 24
-11 0 -20 5 -20 10 0 6 -4 10 -10 10 -5 0 -39 14 -75 30 -76 35 -71 34 -78 17z
m98 -38 c19 -9 19 -9 -2 -5 -12 2 -23 0 -25 -4 -2 -5 -16 -2 -33 5 l-30 13 35
0 c19 1 44 -4 55 -9z"/>
<path d="M2180 4781 c0 -5 5 -13 10 -16 6 -3 10 -2 10 4 0 5 -4 13 -10 16 -5
3 -10 2 -10 -4z"/>
<path d="M2235 4650 c-3 -5 -2 -10 3 -10 4 0 18 -9 30 -21 12 -11 27 -17 32
-14 5 3 15 -3 22 -15 7 -11 18 -20 25 -20 21 0 15 20 -9 31 -53 24 -87 47 -81
53 3 3 1 6 -5 6 -6 0 -14 -4 -17 -10z"/>
<path d="M3208 4613 c7 -3 16 -2 19 1 4 3 -2 6 -13 5 -11 0 -14 -3 -6 -6z"/>
<path d="M2372 4568 c3 -7 27 -21 54 -32 27 -10 57 -23 67 -28 11 -5 21 -7 24
-5 6 6 -39 32 -49 29 -5 -1 -8 3 -8 9 0 6 -7 9 -15 5 -9 -3 -24 3 -35 14 -22
22 -44 27 -38 8z"/>
<path d="M2540 4420 c0 -5 12 -10 26 -10 14 0 23 4 19 10 -3 6 -15 10 -26 10
-10 0 -19 -4 -19 -10z"/>
<path d="M3800 4188 c0 -6 -7 -19 -16 -29 -8 -9 -14 -28 -12 -40 3 -21 6 -19
31 19 32 49 32 48 12 56 -8 3 -15 0 -15 -6z"/>
<path d="M3770 4080 c0 -5 5 -10 10 -10 6 0 10 5 10 10 0 6 -4 10 -10 10 -5 0
-10 -4 -10 -10z"/>
<path d="M3690 3901 c0 -7 -4 -9 -10 -6 -5 3 -10 1 -10 -4 0 -6 4 -11 9 -11
13 0 25 20 17 27 -3 4 -6 1 -6 -6z"/>
<path d="M3680 3863 c0 -15 28 -43 43 -43 7 0 6 5 -3 13 -8 6 -20 19 -27 27
-8 9 -12 11 -13 3z"/>
<path d="M5508 3853 c7 -3 16 -2 19 1 4 3 -2 6 -13 5 -11 0 -14 -3 -6 -6z"/>
<path d="M4150 3793 c0 -5 9 -18 20 -28 11 -10 20 -16 20 -13 0 3 -9 15 -20
28 -11 13 -20 19 -20 13z"/>
<path d="M3798 3763 c-2 -10 -1 -31 3 -48 5 -25 6 -22 6 18 0 50 -2 58 -9 30z"/>
<path d="M3746 3745 c8 -37 14 -45 14 -19 0 10 -5 26 -10 34 -8 11 -9 7 -4
-15z"/>
<path d="M5538 3703 c6 -2 18 -2 25 0 6 3 1 5 -13 5 -14 0 -19 -2 -12 -5z"/>
<path d="M3778 3673 c-3 -10 1 -24 9 -32 12 -10 13 -8 7 16 -9 36 -10 38 -16
16z"/>
<path d="M3810 3616 c0 -8 4 -17 9 -20 5 -4 7 3 4 14 -6 23 -13 26 -13 6z"/>
<path d="M5378 3503 c6 -2 18 -2 25 0 6 3 1 5 -13 5 -14 0 -19 -2 -12 -5z"/>
<path d="M5300 3410 c0 -5 5 -10 10 -10 6 0 10 5 10 10 0 6 -4 10 -10 10 -5 0
-10 -4 -10 -10z"/>
<path d="M3730 3365 c0 -8 4 -15 10 -15 5 0 7 7 4 15 -4 8 -8 15 -10 15 -2 0
-4 -7 -4 -15z"/>
<path d="M3736 3333 c-3 -3 -1 -12 6 -20 6 -8 15 -31 19 -51 l7 -37 1 40 c1
31 4 37 12 25 9 -13 10 -13 6 0 -2 8 -10 14 -16 13 -6 -2 -11 3 -11 11 0 17
-14 28 -24 19z"/>
<path d="M3795 3260 c3 -5 8 -10 11 -10 2 0 4 5 4 10 0 6 -5 10 -11 10 -5 0
-7 -4 -4 -10z"/>
<path d="M3940 3220 c0 -5 5 -10 11 -10 5 0 7 5 4 10 -3 6 -8 10 -11 10 -2 0
-4 -4 -4 -10z"/>
<path d="M3776 3212 c-12 -20 13 -45 30 -31 8 6 14 17 13 23 0 7 -2 6 -6 -1
-7 -19 -21 -16 -25 5 -3 13 -5 14 -12 4z"/>
<path d="M3825 3120 c-3 -5 -1 -10 4 -10 6 0 11 5 11 10 0 6 -2 10 -4 10 -3 0
-8 -4 -11 -10z"/>
</g>
</svg>
